<?xml version="1.0" encoding="UTF-8" standalone="no"?>
<!DOCTYPE svg PUBLIC "-//W3C//DTD SVG 1.1//EN" "http://www.w3.org/Graphics/SVG/1.1/DTD/svg11.dtd">
<!-- Created with Vectornator (http://vectornator.io/) -->
<svg height="100%" stroke-miterlimit="10" style="fill-rule:nonzero;clip-rule:evenodd;stroke-linecap:round;stroke-linejoin:round;" version="1.1" viewBox="51.1271 1059.11 921.746 375.737" width="100%" xml:space="preserve" xmlns="http://www.w3.org/2000/svg" xmlns:vectornator="http://vectornator.io" xmlns:xlink="http://www.w3.org/1999/xlink">
<defs>
<linearGradient gradientTransform="matrix(17.6287 329.068 -329.068 17.6287 567.341 1273.42)" gradientUnits="userSpaceOnUse" id="LinearGradient" x1="0" x2="1" y1="0" y2="0">
<stop offset="0" stop-color="#1f3152"/>
<stop offset="1" stop-color="#000000"/>
</linearGradient>
<filter color-interpolation-filters="sRGB" filterUnits="userSpaceOnUse" height="235.395" id="Filter" width="334.725" x="104.397" y="1139.28">
<feDropShadow dx="-3.67321e-05" dy="10" flood-color="#000000" flood-opacity="0.333" in="SourceGraphic" result="Shadow" stdDeviation="5"/>
</filter>
<filter color-interpolation-filters="sRGB" filterUnits="userSpaceOnUse" height="89.0167" id="Filter_2" width="110.144" x="216.688" y="1212.47">
<feDropShadow dx="-3.67321e-05" dy="10" flood-color="#000000" flood-opacity="0.333" in="SourceGraphic" result="Shadow" stdDeviation="5"/>
</filter>
<filter color-interpolation-filters="sRGB" filterUnits="userSpaceOnUse" height="97.5412" id="Filter_3" width="480.878" x="459.891" y="1168.54">
<feDropShadow dx="-3.67321e-05" dy="10" flood-color="#000000" flood-opacity="0.333" in="SourceGraphic" result="Shadow" stdDeviation="5"/>
</filter>
<filter color-interpolation-filters="sRGB" filterUnits="userSpaceOnUse" height="42.919" id="Filter_4" width="469.675" x="465.641" y="1290.63">
<feDropShadow dx="-3.67321e-05" dy="10" flood-color="#000000" flood-opacity="0.333" in="SourceGraphic" result="Shadow" stdDeviation="5"/>
</filter>
</defs>
<g id="Rect_DG" vectornator:layerName="Rect_DG">
<path d="M53.8946 1095.6C53.8946 1076.97 68.9915 1061.88 87.6145 1061.88L936.385 1061.88C955.008 1061.88 970.105 1076.97 970.105 1095.6L970.105 1398.36C970.105 1416.98 955.008 1432.08 936.385 1432.08L87.6145 1432.08C68.9915 1432.08 53.8946 1416.98 53.8946 1398.36L53.8946 1095.6Z" fill="url(#LinearGradient)" fill-rule="nonzero" opacity="1" stroke="#f4f1f1" stroke-linecap="butt" stroke-linejoin="miter" stroke-width="5.53499" vectornator:layerName="Rectangle 1"/>
<g filter="url(#Filter)" vectornator:layerName="Group 8" vectornator:shadowAngle="1.5708" vectornator:shadowColor="#000000" vectornator:shadowOffset="10" vectornator:shadowOpacity="0.333" vectornator:shadowRadius="10">
<g opacity="1" vectornator:layerName="Polygon 1">
<path d="M262.849 1193.42C268.809 1190.54 275.762 1190.54 281.722 1193.42L320.075 1212C327.543 1215.62 332.286 1223.18 332.286 1231.48L332.286 1262.47C332.286 1270.77 327.543 1278.34 320.075 1281.95L281.722 1300.53C275.762 1303.42 268.809 1303.42 262.849 1300.53L224.496 1281.95C217.029 1278.34 212.286 1270.77 212.286 1262.47L212.286 1231.48C212.286 1223.18 217.029 1215.62 224.496 1212L262.849 1193.42Z" fill="#000000" fill-opacity="0" fill-rule="nonzero" stroke="none"/>
<path d="M274.281 1186.41C271.701 1186.21 271.885 1186.66 263.594 1188.38C262.598 1188.23 261.568 1188.28 260.594 1188.75C252.205 1192.82 254.985 1191.46 252.188 1192.81C247.394 1195.14 242.606 1197.46 237.812 1199.78C233.818 1201.72 229.838 1203.66 225.844 1205.59C223.118 1206.91 220.349 1208.15 217.906 1209.97C213.917 1212.94 210.793 1217.03 208.969 1221.66C208.049 1223.99 207.457 1226.44 207.219 1228.94C207.015 1231.07 207.124 1233.21 207.125 1235.34C207.126 1237.93 207.124 1240.51 207.125 1243.09C207.127 1248.26 207.121 1253.43 207.125 1258.59C207.127 1261.58 207.028 1264.55 207.594 1267.5C208.927 1274.46 213.095 1280.73 218.969 1284.69C222.184 1286.85 225.949 1288.38 229.438 1290.06C235.033 1292.77 240.653 1295.45 246.25 1298.16C249.848 1299.89 253.433 1301.64 257.031 1303.38C259.757 1304.69 262.435 1306.09 265.375 1306.88C269.886 1308.08 274.679 1308.05 279.188 1306.84C282.124 1306.05 284.81 1304.67 287.531 1303.34C291.125 1301.6 294.719 1299.84 298.312 1298.09C304.301 1295.18 310.292 1292.29 316.281 1289.38C319.394 1287.86 322.656 1286.51 325.531 1284.56C329.288 1282.02 332.368 1278.52 334.406 1274.47C335.893 1271.51 336.845 1268.29 337.156 1265C337.357 1262.87 337.253 1260.73 337.25 1258.59C337.247 1256.01 337.252 1253.43 337.25 1250.84C337.247 1246.32 337.253 1241.8 337.25 1237.28C337.248 1234.51 337.39 1231.7 337.125 1228.94C336.77 1225.24 335.61 1221.64 333.781 1218.41C331.962 1215.19 329.497 1212.36 326.531 1210.16C324.1 1208.35 321.338 1207.12 318.625 1205.81C315.828 1204.46 313.047 1203.1 310.25 1201.75C303.458 1198.46 296.667 1195.19 289.875 1191.91C287.28 1190.65 284.685 1189.24 282 1188.19C279.525 1187.21 276.933 1186.61 274.281 1186.41ZM273.219 1196.22C274.571 1196.3 275.926 1196.54 277.219 1196.94C278.881 1197.45 280.408 1198.24 281.969 1199C283.167 1199.58 284.364 1200.17 285.563 1200.75C286.761 1201.33 287.958 1201.92 289.156 1202.5C291.154 1203.47 293.159 1204.44 295.156 1205.41C301.148 1208.31 307.134 1211.22 313.125 1214.12C315.416 1215.24 317.852 1216.2 319.969 1217.62C322.758 1219.51 324.953 1222.25 326.188 1225.38C327.225 1228.01 327.346 1230.61 327.344 1233.41C327.343 1235.34 327.345 1237.28 327.344 1239.22C327.341 1243.74 327.316 1248.26 327.312 1252.78C327.311 1255.36 327.316 1257.95 327.312 1260.53C327.31 1262.25 327.324 1263.94 327 1265.62C326.27 1269.43 324.179 1272.89 321.188 1275.34C319.467 1276.75 317.489 1277.63 315.5 1278.59C313.501 1279.56 311.499 1280.54 309.5 1281.5C302.704 1284.78 295.921 1288.06 289.125 1291.34C286.726 1292.5 284.305 1293.65 281.906 1294.81C278.685 1296.37 275.927 1297.63 272.281 1297.62C267.751 1297.62 264.259 1295.56 260.281 1293.62C256.289 1291.68 252.305 1289.75 248.313 1287.81C243.122 1285.29 237.91 1282.77 232.719 1280.25C231.121 1279.47 229.535 1278.68 227.938 1277.91C226.828 1277.37 225.712 1276.85 224.688 1276.16C221.082 1273.72 218.558 1269.87 217.75 1265.59C217.199 1262.68 217.435 1259.6 217.438 1256.66C217.441 1252.14 217.467 1247.61 217.469 1243.09C217.47 1239.87 217.468 1236.63 217.469 1233.41C217.47 1230.64 217.564 1228.04 218.594 1225.44C219.717 1222.6 221.643 1220.1 224.094 1218.28C225.653 1217.12 227.417 1216.34 229.156 1215.5C230.755 1214.73 232.339 1213.96 233.938 1213.19C240.73 1209.9 247.52 1206.6 254.313 1203.31C256.31 1202.35 258.315 1201.37 260.313 1200.41C261.481 1199.84 260.33 1200.41 265.125 1198.09C265.385 1197.97 265.553 1197.75 265.781 1197.59C267.612 1196.94 268.046 1196.69 269.188 1196.47C270.517 1196.22 271.867 1196.14 273.219 1196.22Z" fill="#5d8b32" stroke="none"/>
</g>
<g opacity="1" vectornator:layerName="Group 4">
<g opacity="1" vectornator:layerName="Group 4">
<g opacity="1" vectornator:layerName="Group 1">
<g opacity="1" vectornator:layerName="Line 1">
<path d="M331.625 1164.28C328.754 1164.28 326.406 1166.6 326.406 1169.47C326.406 1172.34 328.754 1174.69 331.625 1174.69C346.561 1174.65 361.502 1174.43 376.438 1174.41C379.155 1174.41 381.344 1172.19 381.344 1169.47C381.344 1166.75 379.155 1164.56 376.438 1164.56C361.502 1164.54 346.561 1164.32 331.625 1164.28Z" fill="#5d8b32" stroke="none"/>
</g>
<g opacity="1" vectornator:layerName="Line 1">
<path d="M331.219 1164.28C329.893 1164.39 328.589 1165 327.656 1166.09C322.176 1172.56 316.839 1179.17 311.344 1185.62C309.578 1187.69 309.84 1190.8 311.906 1192.56C313.972 1194.33 317.078 1194.07 318.844 1192C324.368 1185.57 330.023 1179.26 335.563 1172.84C337.428 1170.66 337.182 1167.4 335 1165.53C333.909 1164.6 332.545 1164.18 331.219 1164.28Z" fill="#5d8b32" stroke="none"/>
</g>
<g opacity="1" vectornator:layerName="path 2">
<path d="M399 1141.78C398.257 1141.77 397.55 1141.92 396.906 1142.19C396.662 1142.2 395.796 1142.23 395.219 1142.31C393.714 1142.52 392.231 1142.83 390.781 1143.28C383.429 1145.56 377.234 1150.98 374 1157.97C372.601 1160.99 371.761 1164.27 371.531 1167.59C370.538 1181.94 380.923 1194.81 395.188 1196.78C398.269 1197.21 401.419 1197.11 404.469 1196.5C416.569 1194.06 425.673 1183.68 426.531 1171.38C426.748 1168.27 426.418 1165.13 425.594 1162.12C423.122 1153.13 416.065 1145.81 407.156 1143.03C405.396 1142.48 403.584 1142.12 401.75 1141.94C401.125 1141.87 401.743 1141.93 399 1141.78ZM397.719 1151.94C397.729 1151.94 397.74 1151.94 397.75 1151.94C398.111 1152.02 398.458 1152.18 398.844 1152.19C401.284 1152.34 400.486 1152.24 401.281 1152.34C402.227 1152.47 403.152 1152.66 404.062 1152.94C408.889 1154.43 412.902 1158.1 414.875 1162.75C415.699 1164.69 416.176 1166.77 416.25 1168.88C416.604 1178.92 408.352 1187.19 398.312 1186.91C396.381 1186.85 394.463 1186.47 392.656 1185.78C382.823 1182.04 378.458 1170.36 383.469 1161.09C385.726 1156.92 389.675 1153.8 394.25 1152.53C395.382 1152.22 396.547 1152.02 397.719 1151.94Z" fill="#5d8b32" stroke="none"/>
</g>
<g opacity="1" vectornator:layerName="Line 1">
<path d="M211.906 1319.19C196.971 1319.25 182.029 1319.49 167.094 1319.53C164.376 1319.54 162.183 1321.72 162.187 1324.44C162.192 1327.16 164.376 1329.38 167.094 1329.38C182.029 1329.37 196.971 1329.55 211.906 1329.56C214.777 1329.56 217.098 1327.25 217.094 1324.37C217.089 1321.5 214.777 1319.18 211.906 1319.19Z" fill="#5d8b32" stroke="none"/>
</g>
<g opacity="1" vectornator:layerName="Line 1">
<path d="M228 1300.09C226.745 1300.19 225.538 1300.78 224.656 1301.81C219.142 1308.25 213.467 1314.57 207.938 1321C206.076 1323.18 206.346 1326.48 208.531 1328.34C210.716 1330.21 213.982 1329.93 215.844 1327.75C221.314 1321.27 226.671 1314.69 232.156 1308.22C233.919 1306.15 233.662 1303.04 231.594 1301.28C230.559 1300.4 229.255 1299.99 228 1300.09Z" fill="#5d8b32" stroke="none"/>
</g>
<g opacity="1" vectornator:layerName="path 2">
<path d="M143.625 1296.94C142.071 1296.99 140.524 1297.16 139 1297.47C126.904 1299.93 117.84 1310.32 117 1322.62C116.788 1325.73 117.077 1328.87 117.906 1331.88C120.392 1340.87 127.494 1348.17 136.406 1350.94C138.167 1351.48 139.978 1351.85 141.812 1352.03C142.437 1352.09 141.819 1352.05 144.562 1352.19C145.28 1352.2 145.968 1352.04 146.594 1351.78C146.864 1351.77 147.746 1351.74 148.344 1351.66C149.848 1351.45 151.332 1351.11 152.781 1350.66C160.13 1348.36 166.308 1342.93 169.531 1335.94C170.926 1332.91 171.775 1329.64 172 1326.31C172.971 1311.96 162.549 1299.1 148.281 1297.16C146.74 1296.95 145.179 1296.89 143.625 1296.94ZM145.188 1307.03C147.119 1307.08 149.036 1307.47 150.844 1308.16C160.683 1311.88 165.059 1323.54 160.062 1332.81C157.812 1336.99 153.854 1340.13 149.281 1341.41C148.15 1341.72 147.015 1341.92 145.844 1342C145.83 1342 145.761 1342 145.75 1342C145.403 1341.92 145.088 1341.79 144.719 1341.78C142.278 1341.63 143.046 1341.73 142.25 1341.62C141.304 1341.5 140.38 1341.28 139.469 1341C134.64 1339.51 130.636 1335.9 128.656 1331.25C127.83 1329.31 127.359 1327.2 127.281 1325.09C126.912 1315.05 135.147 1306.76 145.188 1307.03Z" fill="#5d8b32" stroke="none"/>
</g>
<g opacity="1" vectornator:layerName="Line 1">
<path d="M331.625 1319.28C328.754 1319.28 326.406 1321.6 326.406 1324.47C326.406 1327.34 328.754 1329.69 331.625 1329.69C346.561 1329.65 361.502 1329.43 376.438 1329.41C379.155 1329.41 381.344 1327.19 381.344 1324.47C381.344 1321.75 379.155 1319.56 376.438 1319.56C361.502 1319.54 346.561 1319.32 331.625 1319.28Z" fill="#5d8b32" stroke="none"/>
</g>
<g opacity="1" vectornator:layerName="Line 1">
<path d="M315.469 1300.25C314.213 1300.15 312.939 1300.52 311.906 1301.41C309.84 1303.17 309.578 1306.28 311.344 1308.34C316.839 1314.8 322.176 1321.37 327.656 1327.84C329.521 1330.03 332.818 1330.3 335 1328.44C337.182 1326.57 337.428 1323.28 335.562 1321.09C330.023 1314.67 324.368 1308.37 318.844 1301.94C317.961 1300.9 316.724 1300.35 315.469 1300.25Z" fill="#5d8b32" stroke="none"/>
</g>
<g opacity="1" vectornator:layerName="path 2">
<path d="M399 1296.78C398.257 1296.77 397.55 1296.92 396.906 1297.19C396.662 1297.2 395.796 1297.23 395.219 1297.31C393.714 1297.52 392.231 1297.83 390.781 1298.28C383.429 1300.56 377.234 1305.98 374 1312.97C372.601 1315.99 371.761 1319.27 371.531 1322.59C370.538 1336.94 380.923 1349.81 395.188 1351.78C398.269 1352.21 401.419 1352.11 404.469 1351.5C416.569 1349.06 425.673 1338.68 426.531 1326.37C426.748 1323.27 426.418 1320.13 425.594 1317.12C423.122 1308.13 416.065 1300.81 407.156 1298.03C405.396 1297.48 403.584 1297.12 401.75 1296.94C401.125 1296.87 401.743 1296.93 399 1296.78ZM397.719 1306.94C397.729 1306.94 397.74 1306.94 397.75 1306.94C398.111 1307.02 398.458 1307.18 398.844 1307.19C401.284 1307.34 400.486 1307.24 401.281 1307.34C402.227 1307.47 403.152 1307.66 404.062 1307.94C408.889 1309.43 412.902 1313.1 414.875 1317.75C415.699 1319.69 416.176 1321.77 416.25 1323.88C416.604 1333.92 408.352 1342.19 398.312 1341.91C396.381 1341.85 394.463 1341.47 392.656 1340.78C382.823 1337.04 378.458 1325.36 383.469 1316.09C385.726 1311.92 389.675 1308.8 394.25 1307.53C395.382 1307.22 396.547 1307.02 397.719 1306.94Z" fill="#5d8b32" stroke="none"/>
</g>
<g opacity="1" vectornator:layerName="Line 1">
<path d="M211.875 1164.13C196.94 1164.2 182.029 1164.45 167.094 1164.5C164.376 1164.51 162.182 1166.72 162.188 1169.44C162.193 1172.16 164.376 1174.35 167.094 1174.34C182.029 1174.33 196.971 1174.53 211.906 1174.53C214.777 1174.52 217.1 1172.18 217.094 1169.31C217.087 1166.44 214.746 1164.12 211.875 1164.13Z" fill="#5d8b32" stroke="none"/>
</g>
<g opacity="1" vectornator:layerName="Line 1">
<path d="M212.281 1164.16C210.955 1164.06 209.589 1164.44 208.5 1165.38C206.322 1167.24 206.099 1170.54 207.969 1172.72C213.522 1179.13 219.212 1185.42 224.75 1191.84C226.52 1193.91 229.625 1194.15 231.688 1192.38C233.75 1190.6 233.958 1187.47 232.188 1185.41C226.678 1178.96 221.338 1172.4 215.844 1165.94C214.909 1164.85 213.608 1164.26 212.281 1164.16Z" fill="#5d8b32" stroke="none"/>
</g>
<g opacity="1" vectornator:layerName="path 2">
<path d="M143.625 1141.94C142.071 1141.99 140.493 1142.16 138.969 1142.47C126.874 1144.93 117.832 1155.35 117 1167.66C116.79 1170.76 117.106 1173.91 117.938 1176.91C120.429 1185.9 127.492 1193.18 136.406 1195.94C138.167 1196.48 140.009 1196.85 141.844 1197.03C142.468 1197.09 141.819 1197.05 144.562 1197.19C145.28 1197.2 145.968 1197.04 146.594 1196.78C146.871 1196.77 147.772 1196.74 148.375 1196.66C149.879 1196.45 151.364 1196.11 152.812 1195.66C160.16 1193.36 166.312 1187.9 169.531 1180.91C170.924 1177.88 171.777 1174.6 172 1171.28C172.962 1156.93 162.519 1144.09 148.25 1142.16C146.709 1141.95 145.179 1141.89 143.625 1141.94ZM145.156 1152.03C147.088 1152.08 149.036 1152.47 150.844 1153.16C160.686 1156.88 165.053 1168.53 160.062 1177.81C157.815 1181.99 153.885 1185.13 149.312 1186.41C148.181 1186.72 147.015 1186.92 145.844 1187C145.829 1187 145.761 1187 145.75 1187C145.403 1186.92 145.088 1186.79 144.719 1186.78C142.278 1186.63 143.077 1186.73 142.281 1186.62C141.336 1186.5 140.38 1186.31 139.469 1186.03C134.639 1184.55 130.639 1180.9 128.656 1176.25C127.828 1174.31 127.36 1172.23 127.281 1170.12C126.905 1160.08 135.116 1151.77 145.156 1152.03Z" fill="#5d8b32" stroke="none"/>
</g>
</g>
</g>
<g opacity="1" vectornator:layerName="Polygon 2">
<path d="M262.849 1174.05C268.809 1171.16 275.762 1171.16 281.722 1174.05L340.075 1202.31C347.543 1205.93 352.286 1213.5 352.286 1221.79L352.286 1272.16C352.286 1280.46 347.543 1288.02 340.075 1291.64L281.722 1319.91C275.762 1322.79 268.809 1322.79 262.849 1319.91L204.496 1291.64C197.029 1288.02 192.286 1280.46 192.286 1272.16L192.286 1221.79C192.286 1213.5 197.029 1205.93 204.496 1202.31L262.849 1174.05Z" fill="#000000" fill-opacity="0" fill-rule="nonzero" stroke="none"/>
<path d="M275.25 1167.12C272.383 1166.8 272.705 1167.31 263.719 1169C262.686 1168.82 261.608 1168.88 260.594 1169.38C254.212 1172.47 256.313 1171.44 254.187 1172.47C250.541 1174.24 246.897 1175.98 243.25 1177.75C232.006 1183.2 220.775 1188.68 209.531 1194.13C207.708 1195.01 205.886 1195.87 204.062 1196.75C202.305 1197.6 200.562 1198.47 198.938 1199.56C194.462 1202.58 190.949 1206.95 188.969 1211.97C188.049 1214.3 187.457 1216.76 187.219 1219.25C186.989 1221.66 187.124 1224.08 187.125 1226.5C187.126 1229.12 187.124 1231.75 187.125 1234.38C187.127 1243.82 187.118 1253.28 187.125 1262.72C187.127 1265.34 187.123 1267.97 187.125 1270.59C187.126 1272.4 187.149 1274.18 187.406 1275.97C188.173 1281.31 190.566 1286.35 194.219 1290.31C198.653 1295.13 204.704 1297.46 210.469 1300.25C219.59 1304.66 228.722 1309.06 237.844 1313.47C243.317 1316.11 248.777 1318.76 254.25 1321.41C257.273 1322.87 260.264 1324.55 263.438 1325.66C268.484 1327.42 274.024 1327.6 279.188 1326.22C282.142 1325.43 284.826 1324.02 287.562 1322.69C291.208 1320.92 294.855 1319.14 298.5 1317.38C310.044 1311.77 321.613 1306.17 333.156 1300.56C335.586 1299.38 338.007 1298.21 340.438 1297.03C342.187 1296.18 343.915 1295.34 345.531 1294.25C349.288 1291.71 352.367 1288.21 354.406 1284.16C355.705 1281.58 356.593 1278.8 357 1275.94C357.327 1273.64 357.252 1271.32 357.25 1269C357.247 1266.38 357.252 1263.78 357.25 1261.16C357.243 1250.66 357.255 1240.15 357.25 1229.66C357.248 1225.8 357.517 1221.86 356.969 1218.03C356.385 1213.96 354.842 1210.04 352.5 1206.66C350.386 1203.6 347.61 1200.99 344.438 1199.06C342.28 1197.75 339.927 1196.75 337.656 1195.66C334.008 1193.89 330.366 1192.14 326.719 1190.38C316.081 1185.22 305.45 1180.06 294.812 1174.91C292.077 1173.58 289.329 1172.26 286.594 1170.94C282.857 1169.13 279.431 1167.59 275.25 1167.12ZM273.531 1176.84C274.986 1176.95 276.434 1177.27 277.812 1177.75C279.052 1178.18 280.227 1178.8 281.406 1179.38C289.004 1183.06 296.59 1186.73 304.188 1190.41C313.305 1194.82 322.416 1199.24 331.531 1203.66C333.051 1204.39 334.574 1205.14 336.094 1205.88C337.417 1206.52 338.747 1207.11 339.969 1207.94C342.541 1209.67 344.607 1212.14 345.875 1214.97C347.363 1218.29 347.345 1221.36 347.344 1224.94C347.343 1226.51 347.344 1228.08 347.344 1229.66C347.34 1237.53 347.317 1245.41 347.312 1253.28C347.31 1258 347.317 1262.72 347.312 1267.44C347.31 1269.79 347.462 1272.2 347.125 1274.53C346.571 1278.37 344.662 1281.94 341.781 1284.53C339.582 1286.51 336.883 1287.63 334.25 1288.91C331.209 1290.38 328.166 1291.84 325.125 1293.31C314.179 1298.6 303.228 1303.9 292.281 1309.19C288.937 1310.8 285.595 1312.42 282.25 1314.03C278.921 1315.64 276.06 1317 272.281 1317C267.295 1316.99 263.042 1314.33 258.688 1312.22C252.612 1309.27 246.544 1306.33 240.469 1303.38C231.355 1298.95 222.239 1294.55 213.125 1290.12C211.606 1289.39 210.082 1288.64 208.562 1287.91C207.249 1287.27 205.901 1286.66 204.687 1285.84C201.933 1283.98 199.813 1281.28 198.594 1278.19C197.412 1275.19 197.435 1272.17 197.438 1269C197.439 1267.43 197.436 1265.86 197.438 1264.28C197.443 1256.94 197.467 1249.59 197.469 1242.25C197.47 1237 197.468 1231.75 197.469 1226.5C197.47 1223.1 197.233 1219.73 198.344 1216.47C199.408 1213.34 201.444 1210.56 204.094 1208.59C205.751 1207.36 207.652 1206.55 209.5 1205.66C211.932 1204.48 214.35 1203.3 216.781 1202.12C227.724 1196.83 238.683 1191.52 249.625 1186.22C252.969 1184.6 256.313 1182.99 259.656 1181.38C260.872 1180.79 262.065 1180.18 263.281 1179.59C263.585 1179.45 263.301 1179.6 265.125 1178.72C265.385 1178.59 265.553 1178.38 265.781 1178.22C267.612 1177.56 268.046 1177.31 269.188 1177.09C270.623 1176.82 272.077 1176.73 273.531 1176.84Z" fill="#5d8b32" stroke="none"/>
</g>
</g>
<g filter="url(#Filter_2)" vectornator:layerName="Source Code" vectornator:shadowAngle="1.5708" vectornator:shadowColor="#000000" vectornator:shadowOffset="10" vectornator:shadowOpacity="0.333" vectornator:shadowRadius="10">
<g opacity="1" vectornator:layerName="path">
<path d="M282.094 1215.25C280.223 1215.31 278.47 1216.46 277.75 1218.31C270.756 1236.26 263.575 1254.12 256.562 1272.06C255.548 1274.67 256.858 1277.61 259.469 1278.62C262.08 1279.64 265.017 1278.36 266.031 1275.75C272.973 1257.78 279.728 1239.75 286.688 1221.78C287.648 1219.31 286.441 1216.52 283.969 1215.56C283.351 1215.32 282.717 1215.23 282.094 1215.25ZM294.844 1222.06C294.231 1222.18 293.614 1222.41 293.062 1222.78C290.858 1224.26 290.275 1227.23 291.75 1229.44C293.437 1231.96 295.134 1234.5 296.812 1237.03C298.987 1240.31 301.131 1243.63 303.312 1246.91C302.788 1247.71 302.239 1248.49 301.719 1249.25C300.008 1251.76 298.321 1254.26 296.625 1256.78C294.929 1259.3 293.227 1261.82 291.531 1264.34C289.974 1266.67 290.578 1269.85 292.906 1271.41C295.234 1272.96 298.411 1272.33 299.969 1270C302.214 1266.63 304.452 1263.25 306.688 1259.88C307.526 1258.61 308.352 1257.33 309.188 1256.06C309.745 1255.22 310.32 1254.38 310.875 1253.53C312.515 1251.03 314.699 1248.55 313.75 1245.31C313.369 1244.01 312.413 1242.83 311.656 1241.72C311.371 1241.3 311.067 1240.89 310.781 1240.47C310.21 1239.63 309.665 1238.81 309.094 1237.97C307.951 1236.3 306.79 1234.62 305.656 1232.94C303.672 1230 301.693 1227.04 299.719 1224.09C298.613 1222.44 296.681 1221.71 294.844 1222.06ZM246.844 1222.06C245.638 1222.3 244.519 1222.99 243.781 1224.09C241.807 1227.04 239.828 1230 237.844 1232.94C236.71 1234.62 235.58 1236.3 234.438 1237.97C233.866 1238.8 233.29 1239.63 232.719 1240.47C231.462 1242.31 229.632 1244.38 229.531 1246.72C229.497 1247.52 229.628 1248.32 229.906 1249.06C230.314 1250.16 231.176 1251.28 231.812 1252.25C232.09 1252.67 232.379 1253.11 232.656 1253.53C232.934 1253.95 233.222 1254.39 233.5 1254.81C233.778 1255.24 234.034 1255.64 234.312 1256.06C235.427 1257.75 236.535 1259.47 237.656 1261.16C239.619 1264.11 241.598 1267.05 243.562 1270C245.12 1272.33 248.266 1272.96 250.594 1271.41C252.922 1269.85 253.558 1266.67 252 1264.34C250.304 1261.82 248.602 1259.3 246.906 1256.78C244.928 1253.84 242.937 1250.93 240.938 1248C240.703 1247.66 240.45 1247.3 240.219 1246.94C242.405 1243.65 244.54 1240.32 246.719 1237.03C248.397 1234.5 250.094 1231.96 251.781 1229.44C253.256 1227.23 252.642 1224.26 250.437 1222.78C249.335 1222.04 248.049 1221.82 246.844 1222.06Z" fill="#5d8b32" stroke="none"/>
</g>
</g>
</g>
<g opacity="1" vectornator:layerName="Group 9">
<g filter="url(#Filter_3)" vectornator:layerName="Group 7" vectornator:shadowAngle="1.5708" vectornator:shadowColor="#000000" vectornator:shadowOffset="10" vectornator:shadowOpacity="0.333" vectornator:shadowRadius="10">
<g opacity="1">
<path d="M475.33 1239.55L504.455 1239.55C520.466 1239.55 527.973 1233.13 527.973 1221.55L527.973 1221.19C527.973 1212.24 522.998 1207.44 515.038 1206.09C522.275 1204.19 525.983 1199.39 525.983 1192.16L525.983 1191.8C525.983 1181.76 519.471 1174.88 504.184 1174.88L475.33 1174.88L475.33 1239.55ZM493.42 1200.57L493.42 1187.18L500.476 1187.18C506.084 1187.18 508.435 1189.17 508.435 1193.6L508.435 1193.97C508.435 1198.58 506.265 1200.57 500.476 1200.57L493.42 1200.57ZM493.42 1227.16L493.42 1211.88L500.566 1211.88C507.079 1211.88 509.702 1214.41 509.702 1219.29L509.702 1219.65C509.702 1224.45 506.988 1227.16 501.109 1227.16L493.42 1227.16Z" fill="#f4f1f1" fill-opacity="0" fill-rule="nonzero" stroke="none"/>
<path d="M476.375 1171.94C475.491 1171.98 474.64 1172.13 473.969 1172.56C473.322 1172.98 472.838 1173.58 472.594 1174.31C472.341 1175.07 472.407 1176.11 472.406 1176.91C472.406 1177.24 472.407 1177.57 472.406 1177.91C472.406 1178.24 472.407 1178.6 472.406 1178.94C472.406 1179.61 472.407 1180.26 472.406 1180.94C472.406 1181.61 472.407 1182.3 472.406 1182.97C472.406 1183.98 472.407 1184.99 472.406 1186C472.405 1188.69 472.407 1191.4 472.406 1194.09C472.405 1199.15 472.408 1204.2 472.406 1209.25C472.404 1216.32 472.408 1223.4 472.406 1230.47C472.406 1232.49 472.407 1234.51 472.406 1236.53C472.406 1236.87 472.406 1237.19 472.406 1237.53C472.406 1237.87 472.407 1237.54 472.406 1239.56C472.406 1241.19 473.721 1242.5 475.344 1242.5C475.491 1242.5 475.577 1242.36 475.719 1242.34C476.367 1242.27 476.245 1242.1 477.156 1242.34C477.742 1242.5 478.362 1242.34 478.969 1242.34C480.182 1242.34 481.411 1242.34 482.625 1242.34C486.266 1242.34 489.891 1242.34 493.531 1242.34C495.958 1242.34 498.385 1242.34 500.813 1242.34C509.139 1242.34 518.564 1242.19 525.062 1236.16C529.548 1231.99 531.032 1225.92 530.75 1219.97C530.593 1216.65 529.719 1213.31 527.844 1210.53C526.439 1208.45 524.464 1206.92 522.281 1205.72C524.441 1204.15 526.254 1202.18 527.344 1199.72C528.449 1197.23 528.895 1194.47 528.844 1191.75C528.723 1185.37 526.433 1179.74 520.969 1176.12C514.387 1171.77 506.341 1172.01 498.781 1172C495.174 1172 491.575 1171.97 487.969 1171.97C485.564 1171.97 483.155 1171.97 480.75 1171.97C480.149 1171.97 479.539 1171.97 478.938 1171.97C478.173 1171.97 477.259 1171.9 476.375 1171.94ZM478.25 1177.78C478.478 1177.78 478.709 1177.78 478.938 1177.78C479.539 1177.78 480.149 1177.78 480.75 1177.78C481.952 1177.78 483.142 1177.78 484.344 1177.78C486.147 1177.78 487.947 1177.78 489.75 1177.78C493.958 1177.78 498.167 1177.79 502.375 1177.78C507.598 1177.78 513.291 1177.93 517.812 1180.91C521.993 1183.65 523.319 1188.13 523.125 1192.94C523.008 1195.84 522.034 1198.67 519.812 1200.62C519.019 1201.32 518.111 1201.89 517.156 1202.34C516.504 1202.65 515.837 1202.89 515.156 1203.13C515.219 1203.11 515.032 1203.14 514.969 1203.16C514.861 1203.19 514.732 1203.22 514.625 1203.25C514.325 1203.34 514.041 1203.48 513.781 1203.66C513.414 1203.91 513.004 1204.25 512.812 1204.66C512.626 1205.05 512.453 1205.47 512.438 1205.91C512.421 1206.38 512.544 1206.87 512.719 1207.31C513.002 1208.03 513.708 1208.56 514.406 1208.81C514.64 1208.9 514.913 1208.92 515.156 1208.97C515.226 1208.98 515.273 1209.02 515.344 1209.03C515.39 1209.04 515.546 1209.07 515.5 1209.06C515.753 1209.12 515.999 1209.15 516.25 1209.22C516.737 1209.34 517.307 1209.55 517.781 1209.72C518.688 1210.05 519.596 1210.44 520.406 1210.97C524.431 1213.58 525.378 1218.3 525.125 1222.81C525.032 1224.47 524.75 1226.13 524.156 1227.69C520.912 1236.18 510.328 1236.78 502.625 1236.78C500.805 1236.78 499.008 1236.78 497.188 1236.78C495.367 1236.78 493.539 1236.78 491.719 1236.78C488.078 1236.78 484.422 1236.78 480.781 1236.78C480.174 1236.78 479.575 1236.78 478.969 1236.78C478.854 1236.78 478.346 1236.78 478.281 1236.78C478.281 1236.36 478.281 1235.92 478.281 1235.5C478.28 1232.81 478.251 1230.13 478.25 1227.44C478.247 1215.65 478.253 1203.85 478.25 1192.06C478.249 1188.36 478.252 1184.64 478.25 1180.94C478.249 1179.88 478.251 1178.84 478.25 1177.78ZM498.719 1184.34C498.131 1184.35 497.525 1184.37 496.938 1184.38C495.31 1184.38 493.204 1184.1 491.875 1185.22C491.351 1185.66 490.977 1186.25 490.781 1186.91C490.479 1187.92 490.623 1189.52 490.625 1190.53C490.626 1191.09 490.624 1191.63 490.625 1192.19C490.626 1192.75 490.624 1193.32 490.625 1193.88C490.626 1194.43 490.625 1195 490.625 1195.56C490.625 1196.12 490.625 1196.66 490.625 1197.22C490.625 1197.71 490.624 1197.94 490.625 1200.19C490.604 1200.33 490.469 1200.42 490.469 1200.56C490.469 1202.19 491.783 1203.5 493.406 1203.5C495.17 1203.5 494.076 1203.17 495.188 1203.5C495.751 1203.67 496.35 1203.5 496.938 1203.5C497.525 1203.5 498.131 1203.5 498.719 1203.5C501.659 1203.5 504.781 1203.54 507.406 1202C510.442 1200.22 511.401 1196.89 511.344 1193.56C511.302 1191.13 510.678 1188.68 508.875 1186.94C506.661 1184.79 503.452 1184.34 500.5 1184.34C499.908 1184.34 499.31 1184.34 498.719 1184.34ZM496.219 1190C496.46 1190 496.696 1190 496.938 1190C498.11 1190.01 499.297 1189.99 500.469 1190C501.182 1190.01 501.888 1190.05 502.594 1190.16C502.972 1190.21 503.354 1190.32 503.719 1190.44C505.618 1191.05 505.608 1192.65 505.531 1194.41C505.503 1195.04 505.413 1195.75 505.094 1196.31C504.346 1197.64 501.733 1197.62 500.469 1197.62C499.885 1197.63 499.303 1197.63 498.719 1197.62C498.131 1197.62 497.525 1197.63 496.938 1197.62C496.818 1197.62 496.286 1197.63 496.219 1197.62C496.194 1197.48 496.219 1197.35 496.219 1197.22C496.219 1196.66 496.218 1196.12 496.219 1195.56C496.22 1193.89 496.215 1192.2 496.219 1190.53C496.219 1190.36 496.218 1190.18 496.219 1190ZM497 1209.06C495.289 1209.07 493.095 1208.76 491.75 1210.03C490.273 1211.43 490.621 1213.84 490.625 1215.69C490.626 1216.32 490.624 1216.96 490.625 1217.59C490.626 1218.23 490.624 1218.89 490.625 1219.53C490.626 1220.17 490.625 1220.8 490.625 1221.44C490.625 1222.07 490.625 1222.71 490.625 1223.34C490.625 1223.92 490.623 1224.08 490.625 1226.78C490.604 1226.92 490.469 1227.01 490.469 1227.16C490.469 1228.78 491.783 1230.09 493.406 1230.09C495.328 1230.09 494.181 1229.77 495.344 1230.09C495.961 1230.27 496.609 1230.09 497.25 1230.09C497.891 1230.09 498.547 1230.09 499.188 1230.09C502.151 1230.09 505.139 1230.09 507.813 1228.62C511.529 1226.59 512.802 1222.58 512.594 1218.56C512.47 1216.16 511.7 1213.79 509.969 1212.06C507.742 1209.84 504.51 1209.15 501.469 1209.06C500.577 1209.04 499.673 1209.06 498.781 1209.06C498.186 1209.07 497.596 1209.06 497 1209.06ZM496.219 1214.69C496.48 1214.69 496.739 1214.69 497 1214.69C498.423 1214.69 499.859 1214.66 501.281 1214.72C502.046 1214.75 502.814 1214.84 503.562 1215C504.078 1215.11 504.559 1215.26 505.031 1215.5C506.763 1216.37 506.868 1218.36 506.781 1220.09C506.744 1220.85 506.627 1221.65 506.25 1222.31C504.974 1224.56 501.294 1224.22 499.188 1224.22C498.547 1224.22 497.891 1224.22 497.25 1224.22C497.078 1224.22 496.318 1224.22 496.219 1224.22C496.176 1223.91 496.219 1223.64 496.219 1223.34C496.219 1222.71 496.218 1222.07 496.219 1221.44C496.22 1219.53 496.215 1217.6 496.219 1215.69C496.219 1215.35 496.218 1215.02 496.219 1214.69Z" fill="#f4f1f1" stroke="none"/>
</g>
<g opacity="1" vectornator:layerName="Curve">
<path d="M544.526 1240.55C549.953 1240.55 554.023 1236.48 554.023 1231.41C554.023 1226.35 549.953 1222.28 544.526 1222.28C539.189 1222.28 535.3 1226.35 535.3 1231.41C535.3 1236.48 539.189 1240.55 544.526 1240.55Z" fill="#f4f1f1" fill-opacity="0" fill-rule="nonzero" stroke="none"/>
<path d="M545.781 1219.47C544.832 1219.37 543.835 1219.37 542.844 1219.5C536.862 1220.25 532.386 1225.39 532.375 1231.41C532.366 1236.08 532.832 1232.79 542.094 1241.38C542.414 1242.28 543.056 1242.92 544 1243.12C544.179 1243.3 544.252 1243.31 544.438 1243.5C544.666 1243.51 544.816 1243.32 545.031 1243.28C547.632 1242.9 547.408 1243.08 548.594 1242.69C551.323 1241.79 553.681 1239.94 555.156 1237.47C555.963 1236.12 556.504 1234.59 556.719 1233.03C557.693 1225.94 552.427 1220.14 545.781 1219.47ZM543.75 1225.19C544.639 1225.08 545.544 1225.16 546.406 1225.38C549.955 1226.26 552.091 1230 550.875 1233.5C550.193 1235.46 550.667 1233.76 544.688 1237.66C544.662 1237.65 544.65 1237.63 544.625 1237.62C542.75 1237.4 543.339 1237.53 542.75 1237.38C541.333 1237 540.062 1236.13 539.25 1234.91C537.319 1232 538.193 1227.82 541.219 1226.03C541.991 1225.58 542.861 1225.29 543.75 1225.19Z" fill="#f4f1f1" stroke="none"/>
</g>
<g opacity="1">
<path d="M564.425 1239.55L582.878 1239.55L582.878 1216.4L587.219 1216.4L600.335 1239.55L619.873 1239.55L604.405 1212.78C611.189 1210.16 616.074 1205 616.074 1195.78L616.074 1195.41C616.074 1181.76 606.667 1174.88 589.752 1174.88L564.425 1174.88L564.425 1239.55ZM582.878 1204.37L582.878 1188.81L588.938 1188.81C594.908 1188.81 598.164 1190.89 598.164 1196.14L598.164 1196.5C598.164 1201.75 595.089 1204.37 588.847 1204.37L582.878 1204.37Z" fill="#f4f1f1" fill-opacity="0" fill-rule="nonzero" stroke="none"/>
<path d="M567.594 1171.97C565.619 1171.97 563.21 1171.65 562 1173.62C561.236 1174.87 561.5 1177.69 561.5 1178.94C561.5 1179.61 561.5 1180.26 561.5 1180.94C561.5 1182.62 561.5 1184.32 561.5 1186C561.499 1189.03 561.501 1192.06 561.5 1195.09C561.499 1200.15 561.501 1205.2 561.5 1210.25C561.498 1217.32 561.502 1224.4 561.5 1231.47C561.5 1233.15 561.5 1234.85 561.5 1236.53C561.5 1236.87 561.5 1237.19 561.5 1237.53C561.5 1237.87 561.501 1237.54 561.5 1239.56C561.5 1241.19 562.814 1242.5 564.438 1242.5C564.696 1242.5 564.855 1242.28 565.094 1242.22C565.122 1242.18 565.129 1242.17 565.594 1242.34C565.954 1242.48 566.334 1242.34 566.719 1242.34C567.103 1242.34 567.491 1242.34 567.875 1242.34C569.413 1242.34 570.962 1242.34 572.5 1242.34C573.653 1242.34 574.815 1242.34 575.969 1242.34C576.738 1242.34 577.481 1242.34 578.25 1242.34C578.634 1242.34 579.022 1242.34 579.406 1242.34C579.791 1242.34 580.178 1242.34 580.562 1242.34C581.438 1242.34 582.603 1242.45 583.438 1242.16C584.312 1241.85 585.015 1241.17 585.375 1240.31C585.814 1239.27 585.656 1237.76 585.656 1236.66C585.656 1236.17 585.656 1235.7 585.656 1235.22C585.657 1231.84 585.656 1228.47 585.656 1225.09C585.657 1223.17 585.656 1221.23 585.656 1219.31C588.557 1224.63 591.641 1229.88 594.625 1235.16C594.898 1235.64 595.164 1236.11 595.438 1236.59C595.711 1237.08 595.977 1237.55 596.25 1238.03C596.948 1239.26 597.655 1240.95 598.875 1241.75C600.252 1242.65 602.461 1242.34 604 1242.34C607.256 1242.35 610.525 1242.37 613.781 1242.38C614.595 1242.38 615.405 1242.37 616.219 1242.38C617.938 1242.38 620.516 1242.77 621.75 1241.25C623.451 1239.16 621.448 1236.64 620.375 1234.78C620.053 1234.22 619.728 1233.68 619.406 1233.13C619.085 1232.57 618.759 1232 618.438 1231.44C618.116 1230.88 617.822 1230.34 617.5 1229.78C615.248 1225.87 612.971 1221.97 610.719 1218.06C609.949 1216.73 609.207 1215.37 608.438 1214.03C609.23 1213.6 610.013 1213.18 610.75 1212.66C613.259 1210.89 615.325 1208.55 616.719 1205.81C618.358 1202.59 618.967 1198.97 618.938 1195.38C618.888 1189.43 617.179 1183.57 612.844 1179.31C606.358 1172.95 596.785 1171.98 588.156 1171.97C584.463 1171.97 580.787 1171.97 577.094 1171.97C574.983 1171.97 572.861 1171.97 570.75 1171.97C569.695 1171.97 568.649 1171.97 567.594 1171.97ZM580.25 1177.78C582.361 1177.78 584.483 1177.78 586.594 1177.78C594.188 1177.78 603.573 1177.86 609.219 1183.84C612.221 1187.02 613.281 1191.44 613.219 1195.72C613.164 1199.52 612.257 1203.28 609.594 1206.12C608.775 1207 607.851 1207.76 606.844 1208.41C606.204 1208.82 605.53 1209.17 604.844 1209.5C604.591 1209.62 604.317 1209.73 604.062 1209.84C604.012 1209.86 604 1209.86 603.969 1209.88C603.834 1209.93 603.69 1209.99 603.562 1210.06C603.228 1210.24 602.992 1210.38 602.719 1210.66C602.108 1211.26 601.782 1212.08 601.781 1212.94C601.781 1214.48 603.132 1216.28 603.875 1217.56C604.198 1218.12 604.521 1218.66 604.844 1219.22C605.167 1219.78 605.49 1220.35 605.812 1220.91C606.135 1221.46 606.458 1222.01 606.781 1222.56C609.519 1227.29 612.241 1232.03 615 1236.75C614.182 1236.75 613.349 1236.75 612.531 1236.75C609.682 1236.75 606.849 1236.75 604 1236.75C603.341 1236.75 602.665 1236.75 602 1236.75C601.216 1235.27 600.323 1233.83 599.5 1232.38C597.039 1228.03 594.555 1223.72 592.094 1219.38C591.074 1217.58 589.749 1214.19 587.438 1213.69C586.726 1213.53 585.776 1213.59 585.062 1213.59C583.433 1213.59 581.705 1213.49 580.656 1215.06C579.869 1216.24 580.093 1217.92 580.094 1219.28C580.094 1219.76 580.094 1220.27 580.094 1220.75C580.094 1223.64 580.093 1226.54 580.094 1229.44C580.094 1231.85 580.094 1234.24 580.094 1236.66C580.094 1236.7 580.094 1236.74 580.094 1236.78C579.865 1236.78 579.635 1236.78 579.406 1236.78C579.022 1236.78 578.634 1236.78 578.25 1236.78C577.481 1236.78 576.738 1236.78 575.969 1236.78C574.815 1236.78 573.653 1236.78 572.5 1236.78C570.962 1236.78 569.413 1236.78 567.875 1236.78C567.709 1236.78 567.541 1236.78 567.375 1236.78C567.375 1236.36 567.375 1235.92 567.375 1235.5C567.374 1232.81 567.376 1230.13 567.375 1227.44C567.372 1215.65 567.347 1203.85 567.344 1192.06C567.343 1188.36 567.345 1184.64 567.344 1180.94C567.343 1179.89 567.344 1178.86 567.344 1177.81C567.427 1177.81 567.511 1177.81 567.594 1177.81C568.121 1177.81 568.66 1177.81 569.188 1177.81C569.715 1177.81 570.222 1177.81 570.75 1177.81C571.805 1177.81 572.882 1177.81 573.938 1177.81C576.048 1177.81 578.139 1177.78 580.25 1177.78ZM585.906 1186C583.922 1186.01 581.65 1185.76 580.531 1187.84C579.828 1189.15 580.09 1191.26 580.094 1192.69C580.095 1193.34 580.092 1194.01 580.094 1194.66C580.095 1195.3 580.093 1195.95 580.094 1196.59C580.095 1197.24 580.093 1197.88 580.094 1198.53C580.094 1199.18 580.093 1199.82 580.094 1200.47C580.094 1201.05 580.092 1201.22 580.094 1204C580.073 1204.14 579.938 1204.23 579.938 1204.38C579.938 1206 581.252 1207.31 582.875 1207.31C584.367 1207.31 583.352 1206.97 584.375 1207.31C584.847 1207.47 585.378 1207.31 585.875 1207.31C586.372 1207.31 586.846 1207.31 587.344 1207.31C590.498 1207.31 593.75 1207.18 596.531 1205.5C600.106 1203.34 601.265 1199.32 601.031 1195.34C600.913 1193.33 600.352 1191.35 599.094 1189.75C595.938 1185.74 590.487 1185.98 585.906 1186ZM587.75 1191.59C589.105 1191.58 590.452 1191.61 591.781 1191.88C593.044 1192.12 594.379 1192.63 594.906 1193.91C595.304 1194.87 595.303 1195.98 595.25 1197C595.208 1197.82 595.052 1198.66 594.625 1199.38C593.264 1201.64 589.565 1201.44 587.344 1201.44C586.846 1201.44 586.372 1201.44 585.875 1201.44C585.839 1201.44 585.684 1201.44 585.656 1201.44C585.615 1201.11 585.656 1200.79 585.656 1200.47C585.657 1199.82 585.656 1199.18 585.656 1198.53C585.658 1196.59 585.683 1194.63 585.688 1192.69C585.688 1192.33 585.687 1191.98 585.688 1191.62C586.375 1191.62 587.062 1191.6 587.75 1191.59Z" fill="#f4f1f1" stroke="none"/>
</g>
<g opacity="1">
<path d="M622.405 1239.55L639.682 1239.55L643.119 1227.52L664.556 1227.52L667.993 1239.55L687.621 1239.55L667.089 1174.88L643.119 1174.88L622.405 1239.55ZM653.883 1189.9L660.938 1214.77L646.737 1214.77L653.883 1189.9Z" fill="#f4f1f1" fill-opacity="0" fill-rule="nonzero" stroke="none"/>
<path d="M644.469 1171.94C643.314 1171.99 642.169 1172.17 641.438 1172.72C640.082 1173.74 639.488 1176.61 639.031 1178.03C638.923 1178.37 638.827 1178.69 638.719 1179.03C638.286 1180.38 637.87 1181.75 637.438 1183.09C636.681 1185.45 635.912 1187.8 635.156 1190.16C632.241 1199.25 629.322 1208.34 626.406 1217.44C624.787 1222.49 623.182 1227.54 621.562 1232.59C621.131 1233.94 620.682 1235.28 620.25 1236.63C620.142 1236.96 620.242 1236.64 619.594 1238.66C619.504 1238.94 619.662 1239.19 619.656 1239.47C619.655 1239.5 619.625 1239.53 619.625 1239.56C619.625 1239.61 619.685 1239.64 619.688 1239.69C619.727 1240.37 619.921 1240.91 620.375 1241.41C620.451 1241.49 620.54 1241.52 620.625 1241.59C620.92 1241.85 621.103 1242.22 621.5 1242.34C621.758 1242.43 621.992 1242.27 622.25 1242.28C622.31 1242.29 622.346 1242.34 622.406 1242.34C622.689 1242.34 622.641 1242.29 622.719 1242.25C622.855 1242.23 622.993 1242.25 623.125 1242.22C623.156 1242.21 623.162 1242.17 623.5 1242.34C623.82 1242.51 624.202 1242.34 624.562 1242.34C624.922 1242.34 625.296 1242.34 625.656 1242.34C626.736 1242.34 627.795 1242.34 628.875 1242.34C630.315 1242.34 631.748 1242.34 633.188 1242.34C633.907 1242.34 634.655 1242.34 635.375 1242.34C637.056 1242.34 640.021 1242.72 641.438 1241.44C642.534 1240.44 642.828 1238.68 643.219 1237.31C643.362 1236.81 643.513 1236.31 643.656 1235.81C643.8 1235.31 643.951 1234.81 644.094 1234.31C644.237 1233.81 644.357 1233.31 644.5 1232.81C644.736 1231.99 644.982 1231.14 645.219 1230.31C648.094 1230.36 650.97 1230.31 653.844 1230.31C656.707 1230.31 659.572 1230.35 662.438 1230.31C662.531 1230.64 662.626 1230.99 662.719 1231.31C663.005 1232.32 663.308 1233.31 663.594 1234.31C663.88 1235.32 664.152 1236.31 664.438 1237.31C664.845 1238.74 665.14 1240.57 666.344 1241.56C667.715 1242.69 670.052 1242.34 671.688 1242.34C674.959 1242.35 678.229 1242.37 681.5 1242.38C682.318 1242.38 683.12 1242.37 683.938 1242.38C685.513 1242.38 688.088 1242.7 689.344 1241.5C689.945 1240.93 690.287 1240.14 690.312 1239.31C690.338 1238.48 689.905 1237.47 689.656 1236.69C689.55 1236.35 689.45 1235.99 689.344 1235.66C689.237 1235.32 689.138 1234.99 689.031 1234.66C688.818 1233.98 688.588 1233.3 688.375 1232.62C688.162 1231.95 687.963 1231.3 687.75 1230.62C684.553 1220.52 681.353 1210.39 678.156 1200.28C676.132 1193.88 674.118 1187.5 672.094 1181.09C671.561 1179.41 671.033 1177.72 670.5 1176.03C670.2 1175.08 669.959 1173.97 669.281 1173.22C667.786 1171.55 664.577 1171.97 662.594 1171.97C662.094 1171.97 661.593 1171.97 661.094 1171.97C660.594 1171.97 660.093 1171.97 659.594 1171.97C658.595 1171.97 657.593 1171.97 656.594 1171.97C655.096 1171.97 653.592 1171.97 652.094 1171.97C650.596 1171.97 649.123 1171.97 647.625 1171.97C646.799 1171.97 645.624 1171.89 644.469 1171.94ZM645.25 1177.78C645.541 1177.78 645.834 1177.78 646.125 1177.78C647.124 1177.78 648.126 1177.78 649.125 1177.78C652.621 1177.78 656.098 1177.78 659.594 1177.78C661.092 1177.78 662.596 1177.78 664.094 1177.78C664.385 1177.78 664.677 1177.78 664.969 1177.78C665.076 1178.12 665.174 1178.44 665.281 1178.78C665.71 1180.13 666.164 1181.5 666.594 1182.84C668.204 1187.89 669.796 1192.92 671.406 1197.97C674.411 1207.4 677.432 1216.82 680.438 1226.25C681.403 1229.28 682.347 1232.31 683.312 1235.34C683.46 1235.81 683.612 1236.28 683.75 1236.75C680.95 1236.75 678.143 1236.75 675.344 1236.75C673.595 1236.75 671.849 1236.72 670.094 1236.75C670.001 1236.43 669.905 1236.1 669.812 1235.78C669.526 1234.78 669.256 1233.78 668.969 1232.78C668.682 1231.78 668.381 1230.75 668.094 1229.75C667.541 1227.82 667.185 1225.53 664.938 1224.88C664.054 1224.62 662.775 1224.72 661.875 1224.72C661.428 1224.72 660.978 1224.72 660.531 1224.72C660.085 1224.72 659.634 1224.72 659.188 1224.72C656.061 1224.72 652.939 1224.75 649.812 1224.75C648.996 1224.75 647.942 1224.75 647.125 1224.75C645.34 1224.75 642.755 1224.34 641.312 1225.69C640.252 1226.67 639.977 1228.44 639.594 1229.78C639.451 1230.28 639.299 1230.78 639.156 1231.28C639.013 1231.78 638.862 1232.28 638.719 1232.78C638.576 1233.28 638.424 1233.78 638.281 1234.28C638.138 1234.78 638.018 1235.28 637.875 1235.78C637.78 1236.11 637.689 1236.45 637.594 1236.78C637.573 1236.78 637.552 1236.78 637.531 1236.78C636.811 1236.78 636.095 1236.78 635.375 1236.78C633.215 1236.78 631.035 1236.78 628.875 1236.78C628.04 1236.78 627.21 1236.78 626.375 1236.78C626.74 1235.64 627.104 1234.51 627.469 1233.38C629.409 1227.31 631.341 1221.25 633.281 1215.19C636.407 1205.42 639.531 1195.64 642.656 1185.88C643.411 1183.52 644.184 1181.17 644.938 1178.81C645.045 1178.48 645.142 1178.12 645.25 1177.78ZM654.688 1187.06C654.172 1186.91 653.704 1187.1 653.219 1187.22C653.187 1187.23 653.157 1187.21 653.125 1187.22C653.11 1187.22 653.109 1187.25 653.094 1187.25C652.45 1187.44 652.009 1187.84 651.625 1188.41C651.566 1188.49 651.486 1188.53 651.438 1188.62C651.34 1188.81 651.122 1188.89 651.062 1189.09C650.617 1190.65 651.526 1189.86 650.625 1190.62C650.214 1190.97 650.305 1191.67 650.156 1192.19C650.008 1192.71 649.867 1193.23 649.719 1193.75C649.125 1195.82 648.531 1197.9 647.938 1199.97C646.899 1203.6 645.874 1207.24 644.844 1210.88C644.41 1212.4 643.612 1214.25 644.375 1215.78C644.813 1216.66 645.621 1217.28 646.562 1217.53C647.607 1217.81 649.254 1217.66 650.281 1217.66C650.873 1217.65 651.471 1217.66 652.062 1217.66C652.654 1217.65 653.252 1217.63 653.844 1217.62C654.435 1217.62 655.033 1217.63 655.625 1217.62C656.217 1217.62 656.783 1217.63 657.375 1217.62C658.519 1217.62 660.364 1217.8 661.469 1217.38C662.239 1217.08 662.878 1216.49 663.25 1215.75C664.009 1214.24 663.216 1212.42 662.781 1210.91C662.632 1210.39 662.462 1209.86 662.312 1209.34C661.418 1206.24 660.544 1203.14 659.656 1200.03C658.916 1197.44 658.174 1194.84 657.438 1192.25C657.29 1191.73 657.446 1192.23 656.562 1189.13C656.558 1189.11 656.536 1189.11 656.531 1189.09C656.332 1188.43 655.937 1187.94 655.344 1187.56C655.289 1187.53 655.245 1187.5 655.188 1187.47C654.995 1187.36 654.909 1187.13 654.688 1187.06ZM653.938 1200.31C654.638 1202.79 655.333 1205.27 656.031 1207.75C656.422 1209.14 656.8 1210.55 657.188 1211.94C656.659 1211.94 656.153 1211.91 655.625 1211.91C655.033 1211.9 654.435 1211.91 653.844 1211.91C652.764 1211.9 651.673 1211.88 650.594 1211.88C650.687 1211.55 650.782 1211.23 650.875 1210.91C651.326 1209.35 651.769 1207.8 652.219 1206.25C652.792 1204.27 653.367 1202.29 653.938 1200.31Z" fill="#f4f1f1" stroke="none"/>
</g>
<g opacity="1">
<path d="M695.038 1239.55L738.094 1239.55L738.094 1225.17L713.672 1225.17L713.672 1174.88L695.038 1174.88L695.038 1239.55Z" fill="#f4f1f1" fill-opacity="0" fill-rule="nonzero" stroke="none"/>
<path d="M698.531 1171.97C696.381 1171.97 693.535 1171.53 692.438 1173.94C691.982 1174.94 692.126 1176.89 692.125 1177.91C692.125 1178.24 692.125 1178.6 692.125 1178.94C692.125 1179.27 692.125 1179.6 692.125 1179.94C692.123 1181.62 692.126 1183.32 692.125 1185C692.123 1187.69 692.126 1190.37 692.125 1193.06C692.122 1203.5 692.097 1213.96 692.094 1224.41C692.093 1227.77 692.095 1231.13 692.094 1234.5C692.093 1235.51 692.094 1236.52 692.094 1237.53C692.094 1237.87 692.094 1237.54 692.094 1239.56C692.094 1241.19 693.408 1242.5 695.031 1242.5C695.177 1242.5 695.267 1242.36 695.406 1242.34C695.678 1242.27 695.659 1242.1 696.375 1242.34C696.8 1242.49 697.27 1242.34 697.719 1242.34C699.064 1242.34 700.436 1242.34 701.781 1242.34C705.818 1242.34 709.839 1242.34 713.875 1242.34C718.808 1242.34 723.754 1242.34 728.688 1242.34C730.481 1242.34 732.269 1242.34 734.062 1242.34C734.511 1242.34 734.958 1242.34 735.406 1242.34C736.547 1242.34 737.997 1242.51 739.031 1241.97C739.857 1241.53 740.455 1240.76 740.719 1239.88C741.046 1238.77 740.874 1237.07 740.875 1235.97C740.875 1235.37 740.906 1234.76 740.906 1234.16C740.907 1233.56 740.906 1232.97 740.906 1232.38C740.907 1231.78 740.906 1231.16 740.906 1230.56C740.907 1229.96 740.906 1229.38 740.906 1228.78C740.907 1226.89 741.252 1224.46 739.594 1223.12C738.358 1222.13 736.524 1222.38 735.031 1222.38C734.522 1222.37 734.009 1222.38 733.5 1222.38C732.991 1222.37 732.509 1222.38 732 1222.38C730.982 1222.37 729.955 1222.38 728.938 1222.38C727.92 1222.37 726.893 1222.35 725.875 1222.34C724.349 1222.34 722.839 1222.35 721.312 1222.34C720.295 1222.34 719.268 1222.35 718.25 1222.34C717.741 1222.34 717.228 1222.34 716.719 1222.34C716.646 1222.34 716.573 1222.34 716.5 1222.34C716.5 1222.24 716.5 1222.14 716.5 1222.03C716.501 1220.98 716.499 1219.92 716.5 1218.88C716.505 1215.21 716.527 1211.54 716.531 1207.88C716.542 1199.49 716.552 1191.13 716.562 1182.75C716.564 1181.7 716.561 1180.64 716.562 1179.59C716.563 1179.07 716.562 1178.55 716.562 1178.03C716.564 1177 716.705 1175.49 716.406 1174.47C716.186 1173.72 715.735 1173.08 715.094 1172.62C713.825 1171.73 711.632 1171.97 710.188 1171.97C709.799 1171.97 709.388 1171.97 709 1171.97C708.224 1171.97 707.464 1171.97 706.688 1171.97C705.911 1171.97 705.12 1171.97 704.344 1171.97C703.179 1171.97 702.039 1171.97 700.875 1171.97C700.099 1171.97 699.308 1171.97 698.531 1171.97ZM697.969 1177.78C701.261 1177.8 704.553 1177.78 707.844 1177.78C708.821 1177.78 709.804 1177.78 710.781 1177.78C710.781 1177.86 710.781 1177.95 710.781 1178.03C710.783 1179.08 710.78 1180.11 710.781 1181.16C710.785 1183.78 710.778 1186.41 710.781 1189.03C710.792 1197.41 710.802 1205.77 710.812 1214.16C710.816 1216.78 710.84 1219.41 710.844 1222.03C710.845 1223 710.702 1224.47 710.969 1225.44C711.291 1226.6 712.182 1227.5 713.344 1227.84C714.297 1228.12 715.758 1228 716.719 1228C717.228 1228 717.741 1228 718.25 1228C722.829 1227.99 727.421 1227.97 732 1227.97C733.095 1227.97 734.184 1227.97 735.281 1227.97C735.281 1228.24 735.281 1228.51 735.281 1228.78C735.282 1229.38 735.281 1229.96 735.281 1230.56C735.282 1232.63 735.311 1234.69 735.312 1236.75C734.893 1236.76 734.476 1236.75 734.062 1236.75C731.82 1236.75 729.586 1236.75 727.344 1236.75C721.513 1236.75 715.674 1236.78 709.844 1236.78C706.704 1236.78 703.546 1236.78 700.406 1236.78C699.593 1236.78 698.782 1236.78 697.969 1236.78C697.969 1236.7 697.969 1236.62 697.969 1236.53C697.968 1235.18 697.969 1233.82 697.969 1232.47C697.967 1227.08 697.97 1221.7 697.969 1216.31C697.966 1206.88 697.974 1197.46 697.969 1188.03C697.967 1185 697.972 1181.97 697.969 1178.94C697.968 1178.55 697.969 1178.17 697.969 1177.78Z" fill="#f4f1f1" stroke="none"/>
</g>
<g opacity="1">
<path d="M752.204 1239.55L770.837 1239.55L770.837 1189.17L787.571 1189.17L787.571 1174.88L735.471 1174.88L735.471 1189.17L752.204 1189.17L752.204 1239.55Z" fill="#f4f1f1" fill-opacity="0" fill-rule="nonzero" stroke="none"/>
<path d="M738.719 1171.97C736.563 1171.97 734.084 1171.62 732.938 1174C732.782 1174.32 732.685 1174.68 732.625 1175.03C732.451 1176.04 732.564 1177.5 732.562 1178.47C732.56 1180.85 732.565 1183.21 732.562 1185.59C732.561 1187.45 732.209 1189.88 733.75 1191.25C735.114 1192.46 738.045 1192.09 739.656 1192.09C740.005 1192.09 740.339 1192.09 740.688 1192.09C741.385 1192.09 742.084 1192.09 742.781 1192.09C743.827 1192.09 744.892 1192.09 745.938 1192.09C747.051 1192.09 748.168 1192.09 749.281 1192.09C749.281 1192.17 749.281 1192.24 749.281 1192.31C749.281 1193.89 749.282 1195.46 749.281 1197.03C749.28 1200.7 749.282 1204.39 749.281 1208.06C749.279 1215.41 749.283 1222.75 749.281 1230.09C749.281 1232.19 749.282 1234.31 749.281 1236.41C749.281 1236.93 749.251 1236.41 749.25 1239.56C749.25 1241.19 750.596 1242.5 752.219 1242.5C752.477 1242.5 752.636 1242.28 752.875 1242.22C752.904 1242.18 752.909 1242.17 753.375 1242.34C753.74 1242.48 754.143 1242.34 754.531 1242.34C755.696 1242.34 756.867 1242.34 758.031 1242.34C761.137 1242.34 764.238 1242.34 767.344 1242.34C769.276 1242.34 771.792 1242.73 773.031 1240.84C773.837 1239.62 773.625 1237.81 773.625 1236.41C773.625 1235.88 773.625 1235.37 773.625 1234.84C773.625 1234.32 773.625 1233.77 773.625 1233.25C773.625 1232.73 773.625 1232.21 773.625 1231.69C773.625 1230.64 773.625 1229.58 773.625 1228.53C773.627 1219.61 773.62 1210.7 773.625 1201.78C773.626 1199.68 773.655 1197.57 773.656 1195.47C773.657 1194.42 773.656 1193.36 773.656 1192.31C773.656 1192.2 773.656 1192.08 773.656 1191.97C773.762 1191.97 773.863 1191.97 773.969 1191.97C775.015 1191.97 776.079 1192 777.125 1192C779.565 1192 781.997 1192 784.438 1192C785.448 1192 787.471 1192.17 788.469 1191.69C790.796 1190.57 790.404 1187.72 790.406 1185.59C790.407 1185 790.405 1184.41 790.406 1183.81C790.408 1182.62 790.405 1181.44 790.406 1180.25C790.407 1179.65 790.405 1179.06 790.406 1178.47C790.408 1176.84 790.681 1174.69 789.594 1173.34C789.155 1172.8 788.572 1172.43 787.906 1172.22C786.905 1171.91 785.324 1172.03 784.312 1172.03C783.77 1172.03 783.23 1172.03 782.688 1172.03C782.145 1172.03 781.605 1172.03 781.062 1172.03C779.977 1172.03 778.898 1172.03 777.812 1172.03C766.958 1172.02 756.104 1172.01 745.25 1172C744.165 1172 743.054 1171.97 741.969 1171.97C740.883 1171.97 739.804 1171.97 738.719 1171.97ZM782.688 1177.72C783.366 1177.72 784.04 1177.72 784.719 1177.72C784.719 1177.97 784.718 1178.22 784.719 1178.47C784.719 1179.06 784.718 1179.65 784.719 1180.25C784.72 1181.44 784.749 1182.62 784.75 1183.81C784.751 1184.65 784.753 1185.5 784.75 1186.34C784.644 1186.34 784.543 1186.34 784.438 1186.34C783.392 1186.34 782.327 1186.34 781.281 1186.34C778.841 1186.35 776.409 1186.37 773.969 1186.38C772.736 1186.38 770.821 1186.14 769.688 1186.81C769.011 1187.21 768.51 1187.86 768.25 1188.59C767.875 1189.66 768.031 1191.21 768.031 1192.31C768.032 1192.84 768.031 1193.38 768.031 1193.91C768.032 1194.43 768.031 1194.94 768.031 1195.47C768.032 1195.99 768.031 1196.51 768.031 1197.03C768.036 1205.43 768.058 1213.85 768.062 1222.25C768.064 1225.92 768.062 1229.58 768.062 1233.25C768.063 1234.43 768.062 1235.6 768.062 1236.78C767.821 1236.78 767.585 1236.78 767.344 1236.78C766.956 1236.78 766.576 1236.78 766.188 1236.78C765.411 1236.78 764.62 1236.78 763.844 1236.78C762.679 1236.78 761.508 1236.78 760.344 1236.78C758.791 1236.78 757.24 1236.78 755.688 1236.78C755.53 1236.78 755.376 1236.78 755.219 1236.78C755.196 1236.66 755.156 1236.52 755.156 1236.41C755.156 1235.88 755.156 1235.37 755.156 1234.84C755.155 1231.69 755.126 1228.52 755.125 1225.38C755.122 1216.45 755.128 1207.55 755.125 1198.62C755.125 1197.58 755.125 1196.52 755.125 1195.47C755.125 1194.94 755.125 1194.43 755.125 1193.91C755.125 1193.38 755.125 1192.84 755.125 1192.31C755.125 1190.93 755.355 1189.14 754.625 1187.91C753.432 1185.89 751.04 1186.25 749.062 1186.25C748.365 1186.25 747.666 1186.25 746.969 1186.25C746.467 1186.25 745.377 1186.25 744.875 1186.25C743.829 1186.25 742.796 1186.25 741.75 1186.25C740.626 1186.25 739.499 1186.25 738.375 1186.25C738.375 1186.03 738.375 1185.81 738.375 1185.59C738.374 1185 738.376 1184.41 738.375 1183.81C738.374 1183.22 738.375 1182.63 738.375 1182.03C738.374 1180.62 738.376 1179.19 738.375 1177.78C738.49 1177.78 738.604 1177.78 738.719 1177.78C739.261 1177.78 739.801 1177.78 740.344 1177.78C750.655 1177.77 760.97 1177.76 771.281 1177.75C775.08 1177.75 778.889 1177.72 782.688 1177.72Z" fill="#f4f1f1" stroke="none"/>
</g>
<g opacity="1">
<path d="M823.933 1240.64C844.827 1240.64 858.486 1227.07 858.486 1207.17L858.486 1206.45C858.486 1186.37 843.923 1173.98 824.204 1173.98C804.847 1173.98 790.013 1187.18 790.013 1206.9L790.013 1207.62C790.013 1227.07 803.038 1240.64 823.933 1240.64ZM824.295 1226.08C815.34 1226.08 809.37 1219.29 809.37 1207.53L809.37 1206.81C809.37 1195.05 815.069 1188.45 824.204 1188.45C833.34 1188.45 839.129 1195.23 839.129 1206.72L839.129 1207.44C839.129 1219.02 833.43 1226.08 824.295 1226.08Z" fill="#f4f1f1" fill-opacity="0" fill-rule="nonzero" stroke="none"/>
<path d="M820.375 1171.28C806.685 1172.45 794.506 1180.35 789.5 1193.41C787.756 1197.95 787.057 1202.8 787.094 1207.66C787.169 1217.6 790.478 1227.41 797.906 1234.28C802.588 1238.61 797.905 1234.31 823.906 1243.59C824.098 1243.6 824.224 1243.44 824.406 1243.41C832.083 1242.68 830.246 1243.12 833.156 1242.53C839.81 1241.18 846.117 1238.14 851 1233.38C858.248 1226.31 861.366 1216.4 861.281 1206.44C861.202 1197.14 858.182 1188 851.469 1181.38C843.373 1173.38 831.51 1170.33 820.375 1171.28ZM821.469 1176.97C823.88 1176.79 826.32 1176.81 828.719 1177.06C838.663 1178.12 847.858 1183.1 852.5 1192.22C854.851 1196.84 855.728 1202.01 855.688 1207.16C855.628 1214.73 853.505 1222.25 848.406 1228C844.173 1232.77 848.304 1228.05 824.125 1237.75C824.065 1237.75 824.029 1237.69 823.969 1237.69C816.977 1237.11 819.277 1237.52 816.969 1237.12C811.402 1236.16 806.052 1233.86 801.875 1230C795.627 1224.23 793.011 1215.93 792.938 1207.59C792.863 1199.19 795.644 1191 801.844 1185.16C807.209 1180.1 814.236 1177.52 821.469 1176.97ZM825.5 1185.63C823.381 1185.5 821.238 1185.69 819.188 1186.25C817.625 1186.68 816.111 1187.34 814.75 1188.22C808.525 1192.25 806.645 1199.79 806.562 1206.78C806.536 1209.04 806.672 1211.28 807.094 1213.5C807.668 1216.52 808.77 1219.48 810.562 1222C812.549 1224.79 811.361 1222.69 822.125 1227.88C822.683 1228.55 823.429 1229.03 824.375 1229C824.681 1228.76 824.769 1228.76 825.062 1228.53C825.636 1228.35 826.062 1228.08 826.406 1227.59C840.132 1217.4 838.765 1223.32 840.906 1216.06C841.732 1213.27 842.028 1210.37 842.062 1207.47C842.164 1198.89 839.242 1189.74 830.438 1186.59C828.857 1186.03 827.173 1185.73 825.5 1185.63ZM822.344 1191.41C823.849 1191.22 825.419 1191.26 826.906 1191.56C827.958 1191.78 828.963 1192.14 829.906 1192.66C835.537 1195.72 836.426 1203 836.188 1208.75C836.035 1212.42 835.191 1216.35 832.844 1219.28C831.537 1220.91 832.861 1219.26 824.219 1223.12C824.194 1223.13 824.181 1223.15 824.156 1223.16C813.528 1215.69 815.156 1220.2 813.438 1215.53C812.797 1213.79 812.445 1211.97 812.281 1210.12C811.728 1203.87 812.6 1195.16 819.188 1192.28C820.197 1191.84 821.252 1191.54 822.344 1191.41Z" fill="#f4f1f1" stroke="none"/>
</g>
<g opacity="1">
<path d="M867.531 1239.55L883.812 1239.55L883.812 1198.94L907.42 1239.55L925.33 1239.55L925.33 1174.88L909.139 1174.88L909.139 1211.33L888.425 1174.88L867.531 1174.88L867.531 1239.55Z" fill="#f4f1f1" fill-opacity="0" fill-rule="nonzero" stroke="none"/>
<path d="M887.562 1171.94C886.515 1171.86 885.426 1171.97 884.5 1171.97C884.065 1171.97 883.623 1171.97 883.188 1171.97C879.705 1171.97 876.232 1171.97 872.75 1171.97C871.879 1171.97 871.027 1171.97 870.156 1171.97C869.215 1171.97 867.946 1171.84 867.031 1172.12C866.014 1172.44 865.18 1173.18 864.812 1174.19C864.475 1175.11 864.594 1177.04 864.594 1177.91C864.594 1178.24 864.594 1178.6 864.594 1178.94C864.594 1179.27 864.594 1179.6 864.594 1179.94C864.593 1183.64 864.594 1187.36 864.594 1191.06C864.592 1202.52 864.596 1213.95 864.594 1225.41C864.593 1228.77 864.594 1232.13 864.594 1235.5C864.594 1236.17 864.594 1236.86 864.594 1237.53C864.594 1237.87 864.594 1237.54 864.594 1239.56C864.594 1241.19 865.908 1242.5 867.531 1242.5C867.775 1242.5 867.93 1242.31 868.156 1242.25C868.174 1242.23 868.183 1242.19 868.562 1242.34C868.878 1242.47 869.223 1242.34 869.562 1242.34C870.919 1242.34 872.268 1242.34 873.625 1242.34C874.643 1242.34 875.67 1242.34 876.688 1242.34C877.705 1242.34 878.732 1242.34 879.75 1242.34C882.159 1242.34 885.77 1242.98 886.5 1239.78C886.686 1238.97 886.594 1237.85 886.594 1237.03C886.594 1236.61 886.594 1236.17 886.594 1235.75C886.594 1233.63 886.594 1231.52 886.594 1229.41C886.594 1222.7 886.593 1215.98 886.594 1209.28C889.777 1214.76 892.973 1220.24 896.156 1225.72C898.614 1229.95 901.073 1234.21 903.531 1238.44C904.121 1239.45 904.746 1240.83 905.688 1241.56C907.08 1242.65 909.13 1242.37 910.781 1242.38C912.647 1242.38 914.509 1242.37 916.375 1242.38C917.494 1242.38 918.599 1242.37 919.719 1242.38C920.465 1242.38 921.222 1242.37 921.969 1242.38C923.473 1242.38 925.666 1242.67 926.938 1241.66C928.601 1240.33 928.155 1237.34 928.156 1235.5C928.157 1235.16 928.156 1234.84 928.156 1234.5C928.157 1233.83 928.156 1233.14 928.156 1232.47C928.157 1231.46 928.156 1230.45 928.156 1229.44C928.164 1219 928.18 1208.57 928.188 1198.12C928.192 1192.06 928.183 1186 928.188 1179.94C928.188 1179.26 928.187 1178.58 928.188 1177.91C928.189 1176.21 928.516 1174.1 927.094 1172.84C925.753 1171.66 922.86 1172 921.281 1172C920.944 1172 920.619 1172 920.281 1172C919.607 1172 918.925 1172 918.25 1172C916.563 1172 914.874 1172 913.188 1172C911.969 1172 909.145 1171.73 907.906 1172.47C907.234 1172.87 906.728 1173.48 906.469 1174.22C906.164 1175.08 906.251 1176.25 906.25 1177.16C906.25 1177.54 906.25 1177.93 906.25 1178.31C906.25 1178.69 906.25 1179.06 906.25 1179.44C906.249 1180.2 906.251 1180.96 906.25 1181.72C906.249 1182.48 906.251 1183.24 906.25 1184C906.248 1186.28 906.252 1188.57 906.25 1190.84C906.248 1194.02 906.252 1197.19 906.25 1200.38C905.897 1199.75 905.541 1199.12 905.188 1198.5C901.954 1192.8 898.734 1187.1 895.5 1181.41C894.422 1179.51 893.328 1177.62 892.25 1175.72C891.728 1174.8 891.189 1173.6 890.375 1172.91C889.609 1172.25 888.61 1172.01 887.562 1171.94ZM912.031 1177.75C912.082 1177.75 912.137 1177.75 912.188 1177.75C913.537 1177.75 914.87 1177.75 916.219 1177.75C918.296 1177.75 920.383 1177.77 922.469 1177.75C922.477 1178.81 922.468 1179.88 922.469 1180.94C922.471 1184.31 922.466 1187.69 922.469 1191.06C922.476 1200.83 922.493 1210.58 922.5 1220.34C922.503 1224.72 922.497 1229.12 922.5 1233.5C922.501 1234.57 922.512 1235.66 922.5 1236.75C919.715 1236.74 916.908 1236.75 914.125 1236.75C912.633 1236.75 911.149 1236.75 909.656 1236.75C909.449 1236.75 909.239 1236.75 909.031 1236.75C908.809 1236.37 908.598 1235.98 908.375 1235.59C907.883 1234.75 907.398 1233.91 906.906 1233.06C905.184 1230.1 903.441 1227.15 901.719 1224.19C897.782 1217.42 893.843 1210.64 889.906 1203.88C889.414 1203.03 888.93 1202.19 888.438 1201.34C888.191 1200.92 887.934 1200.49 887.688 1200.06C886.945 1198.79 886.112 1196.76 884.469 1196.53C884.073 1196.48 883.67 1196.44 883.281 1196.53C882.874 1196.63 882.467 1196.85 882.125 1197.09C880.635 1198.15 881.031 1201.2 881.031 1202.75C881.031 1203.17 881.031 1203.61 881.031 1204.03C881.033 1211.65 881.031 1219.26 881.031 1226.88C881.032 1229.84 881.031 1232.79 881.031 1235.75C881.031 1236.09 881.031 1236.44 881.031 1236.78C880.939 1236.78 880.843 1236.78 880.75 1236.78C880.411 1236.78 880.089 1236.78 879.75 1236.78C879.072 1236.78 878.397 1236.78 877.719 1236.78C876.701 1236.78 875.674 1236.78 874.656 1236.78C873.299 1236.78 871.95 1236.78 870.594 1236.78C870.553 1236.78 870.51 1236.78 870.469 1236.78C870.469 1236.36 870.469 1235.92 870.469 1235.5C870.468 1232.47 870.469 1229.44 870.469 1226.41C870.467 1213.94 870.471 1201.49 870.469 1189.03C870.468 1185.33 870.47 1181.61 870.469 1177.91C870.469 1177.87 870.469 1177.84 870.469 1177.81C871.234 1177.81 871.984 1177.81 872.75 1177.81C875.797 1177.81 878.859 1177.81 881.906 1177.81C883.212 1177.81 884.507 1177.81 885.812 1177.81C886.113 1177.81 886.418 1177.81 886.719 1177.81C886.87 1178.08 887.036 1178.33 887.188 1178.59C887.403 1178.97 887.597 1179.37 887.812 1179.75C888.244 1180.51 888.693 1181.27 889.125 1182.03C890.852 1185.07 892.585 1188.09 894.312 1191.12C897.768 1197.2 901.232 1203.27 904.688 1209.34C905.443 1210.67 906.698 1213.63 908.469 1213.88C908.889 1213.93 909.307 1213.98 909.719 1213.88C910.146 1213.77 910.549 1213.54 910.906 1213.28C911.352 1212.96 911.644 1212.49 911.844 1212C912.171 1211.19 912.032 1209.92 912.031 1209.06C912.031 1208.68 912.031 1208.29 912.031 1207.91C912.031 1207.53 912.032 1207.16 912.031 1206.78C912.031 1206.02 912.032 1205.26 912.031 1204.5C912.027 1196.53 912.037 1188.54 912.031 1180.56C912.031 1179.62 912.028 1178.69 912.031 1177.75Z" fill="#f4f1f1" stroke="none"/>
</g>
</g>
<g fill="#f4f1f1" filter="url(#Filter_4)" stroke="none" vectornator:layerName="Text 2" vectornator:shadowAngle="1.5708" vectornator:shadowColor="#000000" vectornator:shadowOffset="10" vectornator:shadowOpacity="0.333" vectornator:shadowRadius="10">
<path d="M487.777 1307.85C488.811 1307.85 489.713 1307.76 490.483 1307.58C491.253 1307.41 491.891 1307.1 492.397 1306.64C492.903 1306.19 493.282 1305.59 493.535 1304.85C493.788 1304.1 493.915 1303.15 493.915 1302.01C493.915 1300.86 493.788 1299.92 493.535 1299.17C493.282 1298.42 492.903 1297.82 492.397 1297.37C491.891 1296.92 491.253 1296.61 490.483 1296.43C489.713 1296.25 488.811 1296.17 487.777 1296.17L482.662 1296.17L482.662 1307.85L487.777 1307.85ZM489.097 1293.33C490.307 1293.33 491.434 1293.5 492.479 1293.86C493.524 1294.21 494.432 1294.74 495.202 1295.46C495.972 1296.17 496.577 1297.07 497.017 1298.16C497.457 1299.25 497.677 1300.53 497.677 1302.01C497.677 1303.48 497.457 1304.76 497.017 1305.85C496.577 1306.94 495.972 1307.84 495.202 1308.56C494.432 1309.27 493.524 1309.81 492.479 1310.16C491.434 1310.51 490.307 1310.69 489.097 1310.69L478.141 1310.69L478.141 1310.09C478.647 1310.09 478.9 1309.89 478.9 1309.5L478.9 1294.52C478.9 1294.12 478.647 1293.92 478.141 1293.92L478.141 1293.33L489.097 1293.33Z"/>
<path d="M514.969 1299.24C514.969 1298.82 514.628 1298.61 513.946 1298.61L505.894 1298.61L505.894 1301.91L510.976 1301.91C511.35 1301.91 511.625 1301.88 511.801 1301.83C511.977 1301.77 512.065 1301.62 512.065 1301.38L512.659 1301.38L512.659 1304.88L511.999 1304.88C512.065 1304.64 511.977 1304.49 511.735 1304.43C511.493 1304.38 511.152 1304.35 510.712 1304.35L505.894 1304.35L505.894 1308.24L514.342 1308.24C514.606 1308.24 514.826 1308.18 515.002 1308.06C515.178 1307.94 515.266 1307.78 515.266 1307.58L515.86 1307.58L515.86 1311.05L515.266 1311.05C515.266 1310.85 515.178 1310.74 515.002 1310.72C514.826 1310.7 514.606 1310.69 514.342 1310.69L502.231 1310.69L502.231 1310.09C502.341 1310.09 502.451 1310.05 502.561 1309.98C502.671 1309.9 502.726 1309.77 502.726 1309.6L502.726 1297.26C502.726 1297.08 502.671 1296.95 502.561 1296.88C502.451 1296.8 502.341 1296.76 502.231 1296.76L502.231 1296.17L513.946 1296.17C514.628 1296.17 514.969 1295.97 514.969 1295.57L515.563 1295.57L515.563 1299.24L514.969 1299.24Z"/>
<path d="M535.429 1296.76C535.121 1296.76 534.846 1297.01 534.604 1297.52L529.786 1308.18C529.544 1308.75 529.362 1309.14 529.241 1309.33C529.12 1309.53 529.06 1309.69 529.06 1309.8C529.06 1309.93 529.258 1310.03 529.654 1310.09L529.654 1310.69L524.671 1310.69L524.671 1310.09C524.781 1310.05 524.885 1310 524.984 1309.94C525.083 1309.89 525.133 1309.81 525.133 1309.7C525.133 1309.59 525.061 1309.41 524.918 1309.17C524.775 1308.93 524.605 1308.6 524.407 1308.18L519.391 1297.39C519.303 1297.19 519.187 1297.04 519.044 1296.93C518.901 1296.82 518.764 1296.76 518.632 1296.76L518.632 1296.17L523.285 1296.17L523.285 1296.76C523.021 1296.76 522.889 1296.9 522.889 1297.19C522.889 1297.34 522.949 1297.56 523.07 1297.83C523.191 1298.11 523.329 1298.41 523.483 1298.74L527.278 1306.96L530.875 1298.97C531.117 1298.44 531.304 1298.05 531.436 1297.78C531.568 1297.52 531.623 1297.31 531.601 1297.16C531.579 1296.89 531.414 1296.76 531.106 1296.76L531.106 1296.17L535.429 1296.17L535.429 1296.76Z"/>
<path d="M551.665 1299.24C551.665 1298.82 551.324 1298.61 550.642 1298.61L542.59 1298.61L542.59 1301.91L547.672 1301.91C548.046 1301.91 548.321 1301.88 548.497 1301.83C548.673 1301.77 548.761 1301.62 548.761 1301.38L549.355 1301.38L549.355 1304.88L548.695 1304.88C548.761 1304.64 548.673 1304.49 548.431 1304.43C548.189 1304.38 547.848 1304.35 547.408 1304.35L542.59 1304.35L542.59 1308.24L551.038 1308.24C551.302 1308.24 551.522 1308.18 551.698 1308.06C551.874 1307.94 551.962 1307.78 551.962 1307.58L552.556 1307.58L552.556 1311.05L551.962 1311.05C551.962 1310.85 551.874 1310.74 551.698 1310.72C551.522 1310.7 551.302 1310.69 551.038 1310.69L538.927 1310.69L538.927 1310.09C539.037 1310.09 539.147 1310.05 539.257 1309.98C539.367 1309.9 539.422 1309.77 539.422 1309.6L539.422 1297.26C539.422 1297.08 539.367 1296.95 539.257 1296.88C539.147 1296.8 539.037 1296.76 538.927 1296.76L538.927 1296.17L550.642 1296.17C551.324 1296.17 551.665 1295.97 551.665 1295.57L552.259 1295.57L552.259 1299.24L551.665 1299.24Z"/>
<path d="M561.862 1296.17L561.862 1296.76C561.356 1296.76 561.103 1296.93 561.103 1297.26L561.103 1308.24L570.013 1308.24C570.277 1308.24 570.497 1308.18 570.673 1308.06C570.849 1307.94 570.937 1307.77 570.937 1307.55L571.531 1307.55L571.531 1311.02L570.937 1311.02C570.937 1310.84 570.849 1310.74 570.673 1310.72C570.497 1310.7 570.277 1310.69 570.013 1310.69L557.077 1310.69L557.077 1310.09C557.649 1310.09 557.935 1309.93 557.935 1309.6L557.935 1297.26C557.935 1296.93 557.649 1296.76 557.077 1296.76L557.077 1296.17L561.862 1296.17Z"/>
<path d="M582.982 1298.41C582.278 1298.41 581.59 1298.53 580.919 1298.76C580.248 1298.99 579.649 1299.32 579.121 1299.75C578.593 1300.18 578.169 1300.7 577.85 1301.31C577.531 1301.93 577.372 1302.63 577.372 1303.43C577.372 1304.22 577.531 1304.92 577.85 1305.54C578.169 1306.15 578.593 1306.68 579.121 1307.11C579.649 1307.54 580.248 1307.87 580.919 1308.1C581.59 1308.33 582.278 1308.44 582.982 1308.44C583.686 1308.44 584.373 1308.33 585.044 1308.1C585.715 1307.87 586.315 1307.54 586.843 1307.11C587.371 1306.68 587.794 1306.15 588.113 1305.54C588.432 1304.92 588.592 1304.22 588.592 1303.43C588.592 1302.63 588.432 1301.93 588.113 1301.31C587.794 1300.7 587.371 1300.18 586.843 1299.75C586.315 1299.32 585.715 1298.99 585.044 1298.76C584.373 1298.53 583.686 1298.41 582.982 1298.41ZM582.982 1295.97C584.192 1295.97 585.33 1296.12 586.397 1296.43C587.464 1296.74 588.394 1297.2 589.186 1297.82C589.978 1298.43 590.605 1299.21 591.067 1300.14C591.529 1301.08 591.76 1302.17 591.76 1303.43C591.76 1304.68 591.529 1305.78 591.067 1306.71C590.605 1307.65 589.978 1308.42 589.186 1309.04C588.394 1309.65 587.464 1310.1 586.397 1310.37C585.33 1310.65 584.192 1310.79 582.982 1310.79C581.772 1310.79 580.633 1310.65 579.566 1310.37C578.499 1310.1 577.57 1309.65 576.778 1309.04C575.986 1308.42 575.359 1307.65 574.897 1306.71C574.435 1305.78 574.204 1304.68 574.204 1303.43C574.204 1302.17 574.435 1301.08 574.897 1300.14C575.359 1299.21 575.986 1298.43 576.778 1297.82C577.57 1297.2 578.499 1296.74 579.566 1296.43C580.633 1296.12 581.772 1295.97 582.982 1295.97Z"/>
<path d="M604.828 1302.21C605.466 1302.21 605.999 1302.09 606.428 1301.86C606.857 1301.63 607.072 1301.16 607.072 1300.46C607.072 1299.77 606.857 1299.3 606.428 1299.02C605.999 1298.75 605.466 1298.61 604.828 1298.61L599.284 1298.61L599.284 1302.21L604.828 1302.21ZM596.116 1297.26C596.116 1296.93 595.841 1296.76 595.291 1296.76L595.291 1296.17L604.894 1296.17C606.676 1296.17 608.012 1296.49 608.903 1297.12C609.794 1297.76 610.24 1298.87 610.24 1300.46C610.24 1302.04 609.794 1303.14 608.903 1303.74C608.012 1304.35 606.676 1304.65 604.894 1304.65L599.284 1304.65L599.284 1309.6C599.284 1309.93 599.515 1310.09 599.977 1310.09L599.977 1310.69L595.291 1310.69L595.291 1310.09C595.841 1310.09 596.116 1309.93 596.116 1309.6L596.116 1297.26Z"/>
<path d="M614.497 1310.09C614.607 1310.07 614.7 1310.03 614.777 1309.96C614.854 1309.89 614.893 1309.74 614.893 1309.5L614.893 1297.42C614.893 1297.11 614.865 1296.93 614.81 1296.86C614.755 1296.79 614.651 1296.76 614.497 1296.76L614.497 1296.17L619.084 1296.17L619.084 1296.76C618.864 1296.76 618.754 1296.86 618.754 1297.06C618.754 1297.15 618.792 1297.26 618.869 1297.4C618.946 1297.55 619.062 1297.75 619.216 1298.01L623.242 1305.44L627.301 1298.05C627.455 1297.78 627.576 1297.57 627.664 1297.4C627.752 1297.24 627.796 1297.12 627.796 1297.06C627.796 1296.86 627.708 1296.76 627.532 1296.76L627.532 1296.17L632.185 1296.17L632.185 1296.76C632.075 1296.76 631.97 1296.79 631.871 1296.84C631.772 1296.9 631.723 1297.01 631.723 1297.19L631.723 1309.6C631.723 1309.77 631.772 1309.9 631.871 1309.98C631.97 1310.05 632.075 1310.09 632.185 1310.09L632.185 1310.69L628.357 1310.69L628.357 1310.09C628.819 1310.09 629.017 1309.93 628.951 1309.6L628.951 1300.32L628.885 1300.32L623.275 1310.69L623.011 1310.69L617.698 1300.32L617.731 1300.32L617.665 1300.32L617.665 1309.6C617.665 1309.93 617.852 1310.09 618.226 1310.09L618.226 1310.69L614.497 1310.69L614.497 1310.09Z"/>
<path d="M650.698 1299.24C650.698 1298.82 650.357 1298.61 649.675 1298.61L641.623 1298.61L641.623 1301.91L646.705 1301.91C647.079 1301.91 647.354 1301.88 647.53 1301.83C647.706 1301.77 647.794 1301.62 647.794 1301.38L648.388 1301.38L648.388 1304.88L647.728 1304.88C647.794 1304.64 647.706 1304.49 647.464 1304.43C647.222 1304.38 646.881 1304.35 646.441 1304.35L641.623 1304.35L641.623 1308.24L650.071 1308.24C650.335 1308.24 650.555 1308.18 650.731 1308.06C650.907 1307.94 650.995 1307.78 650.995 1307.58L651.589 1307.58L651.589 1311.05L650.995 1311.05C650.995 1310.85 650.907 1310.74 650.731 1310.72C650.555 1310.7 650.335 1310.69 650.071 1310.69L637.96 1310.69L637.96 1310.09C638.07 1310.09 638.18 1310.05 638.29 1309.98C638.4 1309.9 638.455 1309.77 638.455 1309.6L638.455 1297.26C638.455 1297.08 638.4 1296.95 638.29 1296.88C638.18 1296.8 638.07 1296.76 637.96 1296.76L637.96 1296.17L649.675 1296.17C650.357 1296.17 650.698 1295.97 650.698 1295.57L651.292 1295.57L651.292 1299.24L650.698 1299.24Z"/>
<path d="M656.275 1310.09C656.671 1310.09 656.869 1309.93 656.869 1309.6L656.869 1297.26C656.869 1296.93 656.671 1296.76 656.275 1296.76L656.275 1296.17L661.126 1296.17L661.126 1296.76C660.972 1296.78 660.895 1296.84 660.895 1296.93C660.895 1297.04 661.137 1297.33 661.621 1297.82L669.541 1306.2L669.541 1297.26C669.541 1296.93 669.321 1296.76 668.881 1296.76L668.881 1296.17L672.907 1296.17L672.907 1296.76C672.511 1296.76 672.313 1296.93 672.313 1297.26L672.313 1309.6C672.313 1309.93 672.511 1310.09 672.907 1310.09L672.907 1310.69L668.617 1310.69L668.617 1310.09C668.771 1310.09 668.848 1310.04 668.848 1309.93C668.848 1309.84 668.743 1309.69 668.534 1309.47C668.325 1309.25 668.089 1308.99 667.825 1308.71L659.641 1299.99L659.641 1309.6C659.641 1309.93 659.872 1310.09 660.334 1310.09L660.334 1310.69L656.275 1310.69L656.275 1310.09Z"/>
<path d="M681.784 1310.09C681.894 1310.09 682.004 1310.05 682.114 1309.98C682.224 1309.9 682.279 1309.77 682.279 1309.6L682.279 1298.61L677.989 1298.61C677.813 1298.61 677.648 1298.65 677.494 1298.74C677.34 1298.83 677.263 1298.97 677.263 1299.17L676.669 1299.17L676.669 1295.37L677.263 1295.37C677.263 1295.68 677.34 1295.89 677.494 1296C677.648 1296.11 677.813 1296.17 677.989 1296.17L689.737 1296.17C689.913 1296.17 690.078 1296.11 690.232 1296C690.386 1295.89 690.463 1295.68 690.463 1295.37L691.057 1295.37L691.057 1299.17L690.463 1299.17C690.463 1298.97 690.386 1298.83 690.232 1298.74C690.078 1298.65 689.913 1298.61 689.737 1298.61L685.447 1298.61L685.447 1309.6C685.447 1309.93 685.645 1310.09 686.041 1310.09L686.041 1310.69L681.784 1310.69L681.784 1310.09Z"/>
<path d="M711.814 1295.57C711.044 1295.57 710.389 1295.75 709.85 1296.12C709.311 1296.48 709.042 1297.05 709.042 1297.82C709.042 1298.59 709.311 1299.15 709.85 1299.52C710.389 1299.88 711.044 1300.06 711.814 1300.06C712.584 1300.06 713.238 1299.88 713.777 1299.52C714.316 1299.15 714.586 1298.59 714.586 1297.82C714.586 1297.05 714.316 1296.48 713.777 1296.12C713.238 1295.75 712.584 1295.57 711.814 1295.57ZM707.524 1305.18C707.524 1305.73 707.645 1306.2 707.887 1306.59C708.129 1306.99 708.448 1307.31 708.844 1307.55C709.24 1307.79 709.674 1307.97 710.147 1308.08C710.62 1308.19 711.088 1308.24 711.55 1308.24C711.99 1308.24 712.413 1308.17 712.82 1308.03C713.227 1307.89 713.596 1307.71 713.926 1307.49C714.256 1307.27 714.525 1307.02 714.734 1306.74C714.943 1306.47 715.07 1306.19 715.114 1305.9C714.784 1305.44 714.542 1304.98 714.388 1304.53C714.234 1304.08 714.058 1303.67 713.86 1303.31C713.662 1302.95 713.398 1302.66 713.068 1302.44C712.738 1302.22 712.232 1302.11 711.55 1302.11C711.088 1302.11 710.62 1302.16 710.147 1302.27C709.674 1302.38 709.24 1302.56 708.844 1302.8C708.448 1303.04 708.129 1303.36 707.887 1303.74C707.645 1304.13 707.524 1304.6 707.524 1305.18ZM722.869 1310.79C722.055 1310.79 721.345 1310.73 720.74 1310.6C720.135 1310.48 719.607 1310.31 719.156 1310.09C718.705 1309.87 718.32 1309.63 718.001 1309.35C717.682 1309.08 717.391 1308.79 717.127 1308.51C716.599 1308.95 716.109 1309.32 715.658 1309.61C715.207 1309.91 714.745 1310.15 714.272 1310.34C713.799 1310.53 713.293 1310.65 712.754 1310.7C712.215 1310.76 711.594 1310.79 710.89 1310.79C710.098 1310.79 709.289 1310.7 708.464 1310.52C707.639 1310.35 706.891 1310.05 706.22 1309.63C705.549 1309.21 704.994 1308.67 704.554 1308.01C704.114 1307.35 703.894 1306.56 703.894 1305.64C703.894 1304.91 704.009 1304.28 704.24 1303.74C704.471 1303.2 704.785 1302.73 705.181 1302.34C705.577 1301.94 706.05 1301.61 706.6 1301.35C707.15 1301.08 707.744 1300.86 708.382 1300.69L708.382 1300.62C707.7 1300.4 707.111 1300.01 706.616 1299.45C706.121 1298.89 705.874 1298.23 705.874 1297.49C705.874 1296.72 706.055 1296.06 706.418 1295.52C706.781 1294.98 707.243 1294.53 707.804 1294.17C708.365 1293.81 709.003 1293.54 709.718 1293.38C710.433 1293.21 711.132 1293.13 711.814 1293.13C712.518 1293.13 713.222 1293.21 713.926 1293.38C714.63 1293.54 715.262 1293.81 715.823 1294.17C716.384 1294.53 716.846 1294.98 717.209 1295.52C717.572 1296.06 717.754 1296.72 717.754 1297.49C717.754 1298.26 717.539 1298.92 717.11 1299.48C716.681 1300.04 716.214 1300.41 715.708 1300.59C715.994 1300.79 716.225 1301.02 716.401 1301.3C716.577 1301.57 716.731 1301.85 716.863 1302.12C716.995 1302.4 717.116 1302.66 717.226 1302.92C717.336 1303.17 717.468 1303.37 717.622 1303.53C717.952 1302.93 718.337 1302.38 718.777 1301.88C719.217 1301.37 719.657 1300.92 720.097 1300.54C720.537 1300.15 720.938 1299.85 721.301 1299.62C721.664 1299.38 721.934 1299.25 722.11 1299.2C722.22 1299.16 722.319 1299.11 722.407 1299.05C722.495 1299 722.539 1298.93 722.539 1298.84L722.869 1298.84L722.869 1303.92L722.539 1303.92C722.495 1303.79 722.423 1303.64 722.324 1303.46C722.225 1303.28 722.055 1303.2 721.813 1303.2C721.549 1303.2 721.296 1303.31 721.054 1303.53C720.812 1303.75 720.592 1304.02 720.394 1304.33C720.196 1304.65 720.02 1304.98 719.866 1305.31C719.712 1305.64 719.602 1305.91 719.536 1306.13C719.844 1306.53 720.212 1306.89 720.641 1307.21C721.07 1307.52 721.472 1307.69 721.846 1307.72C722.154 1307.72 722.346 1307.62 722.423 1307.42C722.5 1307.22 722.539 1307 722.539 1306.76L722.869 1306.76L722.869 1310.79Z"/>
<path d="M748.906 1296.17C748.07 1296.17 747.234 1296.3 746.398 1296.56C745.562 1296.83 744.808 1297.21 744.137 1297.7C743.466 1298.2 742.922 1298.81 742.504 1299.53C742.086 1300.26 741.877 1301.08 741.877 1302.01C741.877 1302.93 742.086 1303.76 742.504 1304.48C742.922 1305.21 743.466 1305.82 744.137 1306.31C744.808 1306.81 745.562 1307.19 746.398 1307.45C747.234 1307.72 748.07 1307.85 748.906 1307.85C749.742 1307.85 750.578 1307.72 751.414 1307.45C752.25 1307.19 753.003 1306.81 753.674 1306.31C754.345 1305.82 754.89 1305.21 755.308 1304.48C755.726 1303.76 755.935 1302.93 755.935 1302.01C755.935 1301.08 755.726 1300.26 755.308 1299.53C754.89 1298.81 754.345 1298.2 753.674 1297.7C753.003 1297.21 752.25 1296.83 751.414 1296.56C750.578 1296.3 749.742 1296.17 748.906 1296.17ZM748.906 1293.13C750.116 1293.13 751.348 1293.31 752.602 1293.68C753.856 1294.04 755 1294.58 756.034 1295.31C757.068 1296.03 757.915 1296.95 758.575 1298.06C759.235 1299.18 759.565 1300.49 759.565 1302.01C759.565 1303.53 759.235 1304.84 758.575 1305.95C757.915 1307.06 757.068 1307.98 756.034 1308.71C755 1309.43 753.856 1309.96 752.602 1310.29C751.348 1310.62 750.116 1310.79 748.906 1310.79C747.696 1310.79 746.464 1310.62 745.21 1310.29C743.956 1309.96 742.812 1309.43 741.778 1308.71C740.744 1307.98 739.897 1307.06 739.237 1305.95C738.577 1304.84 738.247 1303.53 738.247 1302.01C738.247 1300.49 738.577 1299.18 739.237 1298.06C739.897 1296.95 740.744 1296.03 741.778 1295.31C742.812 1294.58 743.956 1294.04 745.21 1293.68C746.464 1293.31 747.696 1293.13 748.906 1293.13Z"/>
<path d="M773.491 1302.21C774.129 1302.21 774.662 1302.09 775.091 1301.86C775.52 1301.63 775.735 1301.16 775.735 1300.46C775.735 1299.77 775.52 1299.3 775.091 1299.02C774.662 1298.75 774.129 1298.61 773.491 1298.61L767.947 1298.61L767.947 1302.21L773.491 1302.21ZM764.779 1297.26C764.779 1296.93 764.504 1296.76 763.954 1296.76L763.954 1296.17L773.557 1296.17C775.339 1296.17 776.675 1296.49 777.566 1297.12C778.457 1297.76 778.903 1298.87 778.903 1300.46C778.903 1302.04 778.457 1303.14 777.566 1303.74C776.675 1304.35 775.339 1304.65 773.557 1304.65L767.947 1304.65L767.947 1309.6C767.947 1309.93 768.178 1310.09 768.64 1310.09L768.64 1310.69L763.954 1310.69L763.954 1310.09C764.504 1310.09 764.779 1309.93 764.779 1309.6L764.779 1297.26Z"/>
<path d="M795.535 1299.24C795.535 1298.82 795.194 1298.61 794.512 1298.61L786.46 1298.61L786.46 1301.91L791.542 1301.91C791.916 1301.91 792.191 1301.88 792.367 1301.83C792.543 1301.77 792.631 1301.62 792.631 1301.38L793.225 1301.38L793.225 1304.88L792.565 1304.88C792.631 1304.64 792.543 1304.49 792.301 1304.43C792.059 1304.38 791.718 1304.35 791.278 1304.35L786.46 1304.35L786.46 1308.24L794.908 1308.24C795.172 1308.24 795.392 1308.18 795.568 1308.06C795.744 1307.94 795.832 1307.78 795.832 1307.58L796.426 1307.58L796.426 1311.05L795.832 1311.05C795.832 1310.85 795.744 1310.74 795.568 1310.72C795.392 1310.7 795.172 1310.69 794.908 1310.69L782.797 1310.69L782.797 1310.09C782.907 1310.09 783.017 1310.05 783.127 1309.98C783.237 1309.9 783.292 1309.77 783.292 1309.6L783.292 1297.26C783.292 1297.08 783.237 1296.95 783.127 1296.88C783.017 1296.8 782.907 1296.76 782.797 1296.76L782.797 1296.17L794.512 1296.17C795.194 1296.17 795.535 1295.97 795.535 1295.57L796.129 1295.57L796.129 1299.24L795.535 1299.24Z"/>
<path d="M810.055 1302.44C812.211 1302.44 813.289 1301.75 813.289 1300.39C813.289 1299.84 813.03 1299.41 812.513 1299.09C811.996 1298.77 811.177 1298.61 810.055 1298.61L804.841 1298.61L804.841 1302.44L810.055 1302.44ZM810.121 1296.17C812.079 1296.17 813.608 1296.49 814.708 1297.14C815.808 1297.79 816.358 1298.89 816.358 1300.46C816.358 1301.05 816.248 1301.58 816.028 1302.04C815.808 1302.5 815.516 1302.9 815.153 1303.25C814.79 1303.59 814.389 1303.86 813.949 1304.07C813.509 1304.28 813.058 1304.44 812.596 1304.55L815.83 1309.27C816.006 1309.51 816.198 1309.69 816.407 1309.81C816.616 1309.93 816.842 1310.03 817.084 1310.09L817.084 1310.69L812.035 1310.69L812.035 1310.09C812.321 1310.09 812.464 1309.99 812.464 1309.8C812.464 1309.58 812.299 1309.23 811.969 1308.77L809.362 1304.88L804.775 1304.88L804.775 1309.6C804.775 1309.77 804.846 1309.9 804.989 1309.98C805.132 1310.05 805.27 1310.09 805.402 1310.09L805.402 1310.69L801.013 1310.69L801.013 1310.09C801.409 1310.09 801.607 1309.93 801.607 1309.6L801.607 1297.26C801.607 1296.93 801.409 1296.76 801.013 1296.76L801.013 1296.17L810.121 1296.17Z"/>
<path d="M830.119 1304.61L827.446 1299.07L825.103 1304.61L830.119 1304.61ZM819.097 1310.09C819.361 1310.05 819.575 1309.92 819.74 1309.71C819.905 1309.5 820.032 1309.31 820.12 1309.14L825.037 1298.41C825.169 1298.1 825.273 1297.86 825.35 1297.67C825.427 1297.48 825.466 1297.3 825.466 1297.12C825.466 1296.99 825.438 1296.91 825.383 1296.88C825.328 1296.84 825.268 1296.8 825.202 1296.76L825.202 1296.17L830.185 1296.17L830.185 1296.76C830.119 1296.8 830.047 1296.84 829.97 1296.86C829.893 1296.88 829.855 1296.97 829.855 1297.12C829.855 1297.26 829.904 1297.42 830.003 1297.6C830.102 1297.79 830.207 1298 830.317 1298.25L835.663 1309.47C835.773 1309.66 835.894 1309.81 836.026 1309.89C836.158 1309.98 836.301 1310.05 836.455 1310.09L836.455 1310.69L831.769 1310.69L831.769 1310.19C831.879 1310.19 831.994 1310.16 832.115 1310.09C832.236 1310.03 832.297 1309.91 832.297 1309.73C832.297 1309.6 832.275 1309.48 832.231 1309.37C832.187 1309.26 832.132 1309.11 832.066 1308.94L831.175 1307.06L824.113 1307.06L823.189 1308.84C823.101 1309.01 823.029 1309.17 822.974 1309.32C822.919 1309.46 822.892 1309.59 822.892 1309.7C822.892 1309.87 822.947 1309.98 823.057 1310.03C823.167 1310.07 823.321 1310.09 823.519 1310.09L823.519 1310.69L819.097 1310.69L819.097 1310.09Z"/>
<path d="M843.121 1310.09C843.231 1310.09 843.341 1310.05 843.451 1309.98C843.561 1309.9 843.616 1309.77 843.616 1309.6L843.616 1298.61L839.326 1298.61C839.15 1298.61 838.985 1298.65 838.831 1298.74C838.677 1298.83 838.6 1298.97 838.6 1299.17L838.006 1299.17L838.006 1295.37L838.6 1295.37C838.6 1295.68 838.677 1295.89 838.831 1296C838.985 1296.11 839.15 1296.17 839.326 1296.17L851.074 1296.17C851.25 1296.17 851.415 1296.11 851.569 1296C851.723 1295.89 851.8 1295.68 851.8 1295.37L852.394 1295.37L852.394 1299.17L851.8 1299.17C851.8 1298.97 851.723 1298.83 851.569 1298.74C851.415 1298.65 851.25 1298.61 851.074 1298.61L846.784 1298.61L846.784 1309.6C846.784 1309.93 846.982 1310.09 847.378 1310.09L847.378 1310.69L843.121 1310.69L843.121 1310.09Z"/>
<path d="M856.42 1310.09C856.772 1310.09 857.014 1310.05 857.146 1309.98C857.278 1309.9 857.344 1309.77 857.344 1309.6L857.344 1297.26C857.344 1297.08 857.278 1296.95 857.146 1296.88C857.014 1296.8 856.772 1296.76 856.42 1296.76L856.42 1296.17L861.436 1296.17L861.436 1296.76C860.82 1296.76 860.512 1296.93 860.512 1297.26L860.512 1309.6C860.512 1309.93 860.82 1310.09 861.436 1310.09L861.436 1310.69L856.42 1310.69L856.42 1310.09Z"/>
<path d="M874.504 1298.41C873.8 1298.41 873.112 1298.53 872.441 1298.76C871.77 1298.99 871.171 1299.32 870.643 1299.75C870.115 1300.18 869.691 1300.7 869.372 1301.31C869.053 1301.93 868.894 1302.63 868.894 1303.43C868.894 1304.22 869.053 1304.92 869.372 1305.54C869.691 1306.15 870.115 1306.68 870.643 1307.11C871.171 1307.54 871.77 1307.87 872.441 1308.1C873.112 1308.33 873.8 1308.44 874.504 1308.44C875.208 1308.44 875.895 1308.33 876.566 1308.1C877.237 1307.87 877.837 1307.54 878.365 1307.11C878.893 1306.68 879.316 1306.15 879.635 1305.54C879.954 1304.92 880.114 1304.22 880.114 1303.43C880.114 1302.63 879.954 1301.93 879.635 1301.31C879.316 1300.7 878.893 1300.18 878.365 1299.75C877.837 1299.32 877.237 1298.99 876.566 1298.76C875.895 1298.53 875.208 1298.41 874.504 1298.41ZM874.504 1295.97C875.714 1295.97 876.852 1296.12 877.919 1296.43C878.986 1296.74 879.916 1297.2 880.708 1297.82C881.5 1298.43 882.127 1299.21 882.589 1300.14C883.051 1301.08 883.282 1302.17 883.282 1303.43C883.282 1304.68 883.051 1305.78 882.589 1306.71C882.127 1307.65 881.5 1308.42 880.708 1309.04C879.916 1309.65 878.986 1310.1 877.919 1310.37C876.852 1310.65 875.714 1310.79 874.504 1310.79C873.294 1310.79 872.155 1310.65 871.088 1310.37C870.021 1310.1 869.092 1309.65 868.3 1309.04C867.508 1308.42 866.881 1307.65 866.419 1306.71C865.957 1305.78 865.726 1304.68 865.726 1303.43C865.726 1302.17 865.957 1301.08 866.419 1300.14C866.881 1299.21 867.508 1298.43 868.3 1297.82C869.092 1297.2 870.021 1296.74 871.088 1296.43C872.155 1296.12 873.294 1295.97 874.504 1295.97Z"/>
<path d="M887.275 1310.09C887.671 1310.09 887.869 1309.93 887.869 1309.6L887.869 1297.26C887.869 1296.93 887.671 1296.76 887.275 1296.76L887.275 1296.17L892.126 1296.17L892.126 1296.76C891.972 1296.78 891.895 1296.84 891.895 1296.93C891.895 1297.04 892.137 1297.33 892.621 1297.82L900.541 1306.2L900.541 1297.26C900.541 1296.93 900.321 1296.76 899.881 1296.76L899.881 1296.17L903.907 1296.17L903.907 1296.76C903.511 1296.76 903.313 1296.93 903.313 1297.26L903.313 1309.6C903.313 1309.93 903.511 1310.09 903.907 1310.09L903.907 1310.69L899.617 1310.69L899.617 1310.09C899.771 1310.09 899.848 1310.04 899.848 1309.93C899.848 1309.84 899.743 1309.69 899.534 1309.47C899.325 1309.25 899.089 1308.99 898.825 1308.71L890.641 1299.99L890.641 1309.6C890.641 1309.93 890.872 1310.09 891.334 1310.09L891.334 1310.69L887.275 1310.69L887.275 1310.09Z"/>
<path d="M910.276 1305.64C910.276 1305.73 910.27 1305.82 910.259 1305.92C910.248 1306.02 910.243 1306.12 910.243 1306.23C910.243 1306.56 910.452 1306.86 910.87 1307.14C911.288 1307.41 911.788 1307.65 912.371 1307.83C912.954 1308.02 913.537 1308.17 914.12 1308.28C914.703 1308.39 915.16 1308.44 915.49 1308.44C915.798 1308.44 916.177 1308.42 916.628 1308.38C917.079 1308.33 917.525 1308.24 917.965 1308.1C918.405 1307.95 918.779 1307.76 919.087 1307.5C919.395 1307.25 919.549 1306.91 919.549 1306.5C919.549 1306.01 919.279 1305.66 918.74 1305.44C918.201 1305.22 917.525 1305.05 916.711 1304.93C915.897 1304.81 915.017 1304.69 914.071 1304.57C913.125 1304.44 912.245 1304.25 911.431 1303.97C910.617 1303.7 909.94 1303.3 909.401 1302.78C908.862 1302.27 908.593 1301.53 908.593 1300.59C908.593 1299.18 909.176 1298.06 910.342 1297.22C911.508 1296.39 913.147 1295.97 915.259 1295.97C916.293 1295.97 917.178 1296.05 917.915 1296.22C918.652 1296.38 919.274 1296.56 919.78 1296.76C920.286 1296.96 920.698 1297.14 921.017 1297.31C921.336 1297.47 921.573 1297.55 921.727 1297.55C921.903 1297.55 922.035 1297.53 922.123 1297.47C922.211 1297.42 922.321 1297.35 922.453 1297.29L922.816 1297.65L921.166 1300.75L920.572 1300.56C920.55 1300.42 920.528 1300.29 920.506 1300.16C920.484 1300.03 920.385 1299.9 920.209 1299.76C919.769 1299.39 919.087 1299.07 918.163 1298.81C917.239 1298.54 916.205 1298.41 915.061 1298.41C914.621 1298.41 914.203 1298.44 913.807 1298.49C913.411 1298.55 913.059 1298.64 912.751 1298.77C912.443 1298.91 912.201 1299.08 912.025 1299.29C911.849 1299.49 911.761 1299.75 911.761 1300.06C911.761 1300.54 912.03 1300.89 912.569 1301.1C913.108 1301.31 913.785 1301.47 914.599 1301.6C915.413 1301.72 916.293 1301.84 917.239 1301.96C918.185 1302.08 919.065 1302.28 919.879 1302.57C920.693 1302.85 921.369 1303.27 921.908 1303.82C922.447 1304.37 922.717 1305.13 922.717 1306.1C922.717 1307.07 922.48 1307.86 922.007 1308.48C921.534 1309.09 920.946 1309.58 920.242 1309.93C919.538 1310.28 918.762 1310.51 917.915 1310.62C917.068 1310.73 916.271 1310.79 915.523 1310.79C914.775 1310.79 914.032 1310.71 913.295 1310.57C912.558 1310.43 911.887 1310.26 911.282 1310.08C910.677 1309.89 910.166 1309.71 909.748 1309.55C909.33 1309.38 909.077 1309.3 908.989 1309.3C908.835 1309.3 908.703 1309.37 908.593 1309.5L908.131 1309.17L909.649 1305.47L910.276 1305.64Z"/>
</g>
</g>
</g>
</svg>
