<?xml version="1.0" encoding="UTF-8" standalone="no"?>
<!DOCTYPE svg PUBLIC "-//W3C//DTD SVG 1.1//EN" "http://www.w3.org/Graphics/SVG/1.1/DTD/svg11.dtd">
<!-- Created with Vectornator (http://vectornator.io/) -->
<svg height="100%" stroke-miterlimit="10" style="fill-rule:nonzero;clip-rule:evenodd;stroke-linecap:round;stroke-linejoin:round;" version="1.1" viewBox="1040.07 1059.11 921.746 375.737" width="100%" xml:space="preserve" xmlns="http://www.w3.org/2000/svg" xmlns:vectornator="http://vectornator.io" xmlns:xlink="http://www.w3.org/1999/xlink">
<defs>
<filter color-interpolation-filters="sRGB" filterUnits="userSpaceOnUse" height="235.395" id="Filter" width="334.725" x="1093.34" y="1139.28">
<feDropShadow dx="-3.67321e-05" dy="10" flood-color="#000000" flood-opacity="0.333" in="SourceGraphic" result="Shadow" stdDeviation="5"/>
</filter>
<filter color-interpolation-filters="sRGB" filterUnits="userSpaceOnUse" height="89.0167" id="Filter_2" width="110.144" x="1205.63" y="1212.47">
<feDropShadow dx="-3.67321e-05" dy="10" flood-color="#000000" flood-opacity="0.333" in="SourceGraphic" result="Shadow" stdDeviation="5"/>
</filter>
</defs>
<g id="Rect_D" vectornator:layerName="Rect_D">
<path d="M1042.84 1095.6C1042.84 1076.97 1057.94 1061.88 1076.56 1061.88L1925.33 1061.88C1943.95 1061.88 1959.05 1076.97 1959.05 1095.6L1959.05 1398.36C1959.05 1416.98 1943.95 1432.08 1925.33 1432.08L1076.56 1432.08C1057.94 1432.08 1042.84 1416.98 1042.84 1398.36L1042.84 1095.6Z" fill="#1f3152" fill-rule="nonzero" opacity="1" stroke="#2f4a7b" stroke-linecap="butt" stroke-linejoin="miter" stroke-width="5.53499" vectornator:layerName="Rectangle 1"/>
<g opacity="1" vectornator:layerName="Group 6">
<g opacity="1" vectornator:layerName="Group 7">
<path d="M1464.28 1239.55L1493.4 1239.55C1509.41 1239.55 1516.92 1233.13 1516.92 1221.55L1516.92 1221.19C1516.92 1212.24 1511.94 1207.44 1503.98 1206.09C1511.22 1204.19 1514.93 1199.39 1514.93 1192.16L1514.93 1191.8C1514.93 1181.76 1508.42 1174.88 1493.13 1174.88L1464.28 1174.88L1464.28 1239.55ZM1482.37 1200.57L1482.37 1187.18L1489.42 1187.18C1495.03 1187.18 1497.38 1189.17 1497.38 1193.6L1497.38 1193.97C1497.38 1198.58 1495.21 1200.57 1489.42 1200.57L1482.37 1200.57ZM1482.37 1227.16L1482.37 1211.88L1489.51 1211.88C1496.02 1211.88 1498.65 1214.41 1498.65 1219.29L1498.65 1219.65C1498.65 1224.45 1495.93 1227.16 1490.05 1227.16L1482.37 1227.16Z" fill="#f4f1f1" fill-rule="nonzero" opacity="1" stroke="none"/>
<path d="M1533.47 1240.55C1538.9 1240.55 1542.97 1236.48 1542.97 1231.41C1542.97 1226.35 1538.9 1222.28 1533.47 1222.28C1528.13 1222.28 1524.25 1226.35 1524.25 1231.41C1524.25 1236.48 1528.13 1240.55 1533.47 1240.55Z" fill="#f4f1f1" fill-rule="nonzero" opacity="1" stroke="none" vectornator:layerName="Curve"/>
<path d="M1553.37 1239.55L1571.82 1239.55L1571.82 1216.4L1576.16 1216.4L1589.28 1239.55L1608.82 1239.55L1593.35 1212.78C1600.13 1210.16 1605.02 1205 1605.02 1195.78L1605.02 1195.41C1605.02 1181.76 1595.61 1174.88 1578.7 1174.88L1553.37 1174.88L1553.37 1239.55ZM1571.82 1204.37L1571.82 1188.81L1577.88 1188.81C1583.85 1188.81 1587.11 1190.89 1587.11 1196.14L1587.11 1196.5C1587.11 1201.75 1584.03 1204.37 1577.79 1204.37L1571.82 1204.37Z" fill="#f4f1f1" fill-rule="nonzero" opacity="1" stroke="none"/>
<path d="M1611.35 1239.55L1628.63 1239.55L1632.06 1227.52L1653.5 1227.52L1656.94 1239.55L1676.57 1239.55L1656.03 1174.88L1632.06 1174.88L1611.35 1239.55ZM1642.83 1189.9L1649.88 1214.77L1635.68 1214.77L1642.83 1189.9Z" fill="#f4f1f1" fill-rule="nonzero" opacity="1" stroke="none"/>
<path d="M1683.98 1239.55L1727.04 1239.55L1727.04 1225.17L1702.62 1225.17L1702.62 1174.88L1683.98 1174.88L1683.98 1239.55Z" fill="#f4f1f1" fill-rule="nonzero" opacity="1" stroke="none"/>
<path d="M1741.15 1239.55L1759.78 1239.55L1759.78 1189.17L1776.52 1189.17L1776.52 1174.88L1724.42 1174.88L1724.42 1189.17L1741.15 1189.17L1741.15 1239.55Z" fill="#f4f1f1" fill-rule="nonzero" opacity="1" stroke="none"/>
<path d="M1812.88 1240.64C1833.77 1240.64 1847.43 1227.07 1847.43 1207.17L1847.43 1206.45C1847.43 1186.37 1832.87 1173.98 1813.15 1173.98C1793.79 1173.98 1778.96 1187.18 1778.96 1206.9L1778.96 1207.62C1778.96 1227.07 1791.98 1240.64 1812.88 1240.64ZM1813.24 1226.08C1804.29 1226.08 1798.32 1219.29 1798.32 1207.53L1798.32 1206.81C1798.32 1195.05 1804.01 1188.45 1813.15 1188.45C1822.29 1188.45 1828.07 1195.23 1828.07 1206.72L1828.07 1207.44C1828.07 1219.02 1822.38 1226.08 1813.24 1226.08Z" fill="#f4f1f1" fill-rule="nonzero" opacity="1" stroke="none"/>
<path d="M1856.48 1239.55L1872.76 1239.55L1872.76 1198.94L1896.37 1239.55L1914.28 1239.55L1914.28 1174.88L1898.08 1174.88L1898.08 1211.33L1877.37 1174.88L1856.48 1174.88L1856.48 1239.55Z" fill="#f4f1f1" fill-rule="nonzero" opacity="1" stroke="none"/>
</g>
<g fill="#f4f1f1" opacity="1" stroke="none" vectornator:layerName="Text 2">
<path d="M1476.72 1307.85C1477.76 1307.85 1478.66 1307.76 1479.43 1307.58C1480.2 1307.41 1480.84 1307.1 1481.34 1306.64C1481.85 1306.19 1482.23 1305.59 1482.48 1304.85C1482.73 1304.1 1482.86 1303.15 1482.86 1302.01C1482.86 1300.86 1482.73 1299.92 1482.48 1299.17C1482.23 1298.42 1481.85 1297.82 1481.34 1297.37C1480.84 1296.92 1480.2 1296.61 1479.43 1296.43C1478.66 1296.25 1477.76 1296.17 1476.72 1296.17L1471.61 1296.17L1471.61 1307.85L1476.72 1307.85ZM1478.04 1293.33C1479.25 1293.33 1480.38 1293.5 1481.42 1293.86C1482.47 1294.21 1483.38 1294.74 1484.15 1295.46C1484.92 1296.17 1485.52 1297.07 1485.96 1298.16C1486.4 1299.25 1486.62 1300.53 1486.62 1302.01C1486.62 1303.48 1486.4 1304.76 1485.96 1305.85C1485.52 1306.94 1484.92 1307.84 1484.15 1308.56C1483.38 1309.27 1482.47 1309.81 1481.42 1310.16C1480.38 1310.51 1479.25 1310.69 1478.04 1310.69L1467.09 1310.69L1467.09 1310.09C1467.59 1310.09 1467.85 1309.89 1467.85 1309.5L1467.85 1294.52C1467.85 1294.12 1467.59 1293.92 1467.09 1293.92L1467.09 1293.33L1478.04 1293.33Z"/>
<path d="M1503.91 1299.24C1503.91 1298.82 1503.57 1298.61 1502.89 1298.61L1494.84 1298.61L1494.84 1301.91L1499.92 1301.91C1500.3 1301.91 1500.57 1301.88 1500.75 1301.83C1500.92 1301.77 1501.01 1301.62 1501.01 1301.38L1501.6 1301.38L1501.6 1304.88L1500.94 1304.88C1501.01 1304.64 1500.92 1304.49 1500.68 1304.43C1500.44 1304.38 1500.1 1304.35 1499.66 1304.35L1494.84 1304.35L1494.84 1308.24L1503.29 1308.24C1503.55 1308.24 1503.77 1308.18 1503.95 1308.06C1504.12 1307.94 1504.21 1307.78 1504.21 1307.58L1504.81 1307.58L1504.81 1311.05L1504.21 1311.05C1504.21 1310.85 1504.12 1310.74 1503.95 1310.72C1503.77 1310.7 1503.55 1310.69 1503.29 1310.69L1491.18 1310.69L1491.18 1310.09C1491.29 1310.09 1491.4 1310.05 1491.51 1309.98C1491.62 1309.9 1491.67 1309.77 1491.67 1309.6L1491.67 1297.26C1491.67 1297.08 1491.62 1296.95 1491.51 1296.88C1491.4 1296.8 1491.29 1296.76 1491.18 1296.76L1491.18 1296.17L1502.89 1296.17C1503.57 1296.17 1503.91 1295.97 1503.91 1295.57L1504.51 1295.57L1504.51 1299.24L1503.91 1299.24Z"/>
<path d="M1524.37 1296.76C1524.07 1296.76 1523.79 1297.01 1523.55 1297.52L1518.73 1308.18C1518.49 1308.75 1518.31 1309.14 1518.19 1309.33C1518.07 1309.53 1518.01 1309.69 1518.01 1309.8C1518.01 1309.93 1518.2 1310.03 1518.6 1310.09L1518.6 1310.69L1513.62 1310.69L1513.62 1310.09C1513.73 1310.05 1513.83 1310 1513.93 1309.94C1514.03 1309.89 1514.08 1309.81 1514.08 1309.7C1514.08 1309.59 1514.01 1309.41 1513.86 1309.17C1513.72 1308.93 1513.55 1308.6 1513.35 1308.18L1508.34 1297.39C1508.25 1297.19 1508.13 1297.04 1507.99 1296.93C1507.85 1296.82 1507.71 1296.76 1507.58 1296.76L1507.58 1296.17L1512.23 1296.17L1512.23 1296.76C1511.97 1296.76 1511.83 1296.9 1511.83 1297.19C1511.83 1297.34 1511.89 1297.56 1512.02 1297.83C1512.14 1298.11 1512.27 1298.41 1512.43 1298.74L1516.22 1306.96L1519.82 1298.97C1520.06 1298.44 1520.25 1298.05 1520.38 1297.78C1520.51 1297.52 1520.57 1297.31 1520.55 1297.16C1520.52 1296.89 1520.36 1296.76 1520.05 1296.76L1520.05 1296.17L1524.37 1296.17L1524.37 1296.76Z"/>
<path d="M1540.61 1299.24C1540.61 1298.82 1540.27 1298.61 1539.59 1298.61L1531.54 1298.61L1531.54 1301.91L1536.62 1301.91C1536.99 1301.91 1537.27 1301.88 1537.44 1301.83C1537.62 1301.77 1537.71 1301.62 1537.71 1301.38L1538.3 1301.38L1538.3 1304.88L1537.64 1304.88C1537.71 1304.64 1537.62 1304.49 1537.38 1304.43C1537.13 1304.38 1536.79 1304.35 1536.35 1304.35L1531.54 1304.35L1531.54 1308.24L1539.98 1308.24C1540.25 1308.24 1540.47 1308.18 1540.64 1308.06C1540.82 1307.94 1540.91 1307.78 1540.91 1307.58L1541.5 1307.58L1541.5 1311.05L1540.91 1311.05C1540.91 1310.85 1540.82 1310.74 1540.64 1310.72C1540.47 1310.7 1540.25 1310.69 1539.98 1310.69L1527.87 1310.69L1527.87 1310.09C1527.98 1310.09 1528.09 1310.05 1528.2 1309.98C1528.31 1309.9 1528.37 1309.77 1528.37 1309.6L1528.37 1297.26C1528.37 1297.08 1528.31 1296.95 1528.2 1296.88C1528.09 1296.8 1527.98 1296.76 1527.87 1296.76L1527.87 1296.17L1539.59 1296.17C1540.27 1296.17 1540.61 1295.97 1540.61 1295.57L1541.2 1295.57L1541.2 1299.24L1540.61 1299.24Z"/>
<path d="M1550.81 1296.17L1550.81 1296.76C1550.3 1296.76 1550.05 1296.93 1550.05 1297.26L1550.05 1308.24L1558.96 1308.24C1559.22 1308.24 1559.44 1308.18 1559.62 1308.06C1559.79 1307.94 1559.88 1307.77 1559.88 1307.55L1560.48 1307.55L1560.48 1311.02L1559.88 1311.02C1559.88 1310.84 1559.79 1310.74 1559.62 1310.72C1559.44 1310.7 1559.22 1310.69 1558.96 1310.69L1546.02 1310.69L1546.02 1310.09C1546.59 1310.09 1546.88 1309.93 1546.88 1309.6L1546.88 1297.26C1546.88 1296.93 1546.59 1296.76 1546.02 1296.76L1546.02 1296.17L1550.81 1296.17Z"/>
<path d="M1571.93 1298.41C1571.22 1298.41 1570.54 1298.53 1569.86 1298.76C1569.19 1298.99 1568.59 1299.32 1568.07 1299.75C1567.54 1300.18 1567.11 1300.7 1566.8 1301.31C1566.48 1301.93 1566.32 1302.63 1566.32 1303.43C1566.32 1304.22 1566.48 1304.92 1566.8 1305.54C1567.11 1306.15 1567.54 1306.68 1568.07 1307.11C1568.59 1307.54 1569.19 1307.87 1569.86 1308.1C1570.54 1308.33 1571.22 1308.44 1571.93 1308.44C1572.63 1308.44 1573.32 1308.33 1573.99 1308.1C1574.66 1307.87 1575.26 1307.54 1575.79 1307.11C1576.32 1306.68 1576.74 1306.15 1577.06 1305.54C1577.38 1304.92 1577.54 1304.22 1577.54 1303.43C1577.54 1302.63 1577.38 1301.93 1577.06 1301.31C1576.74 1300.7 1576.32 1300.18 1575.79 1299.75C1575.26 1299.32 1574.66 1298.99 1573.99 1298.76C1573.32 1298.53 1572.63 1298.41 1571.93 1298.41ZM1571.93 1295.97C1573.14 1295.97 1574.28 1296.12 1575.34 1296.43C1576.41 1296.74 1577.34 1297.2 1578.13 1297.82C1578.92 1298.43 1579.55 1299.21 1580.01 1300.14C1580.47 1301.08 1580.71 1302.17 1580.71 1303.43C1580.71 1304.68 1580.47 1305.78 1580.01 1306.71C1579.55 1307.65 1578.92 1308.42 1578.13 1309.04C1577.34 1309.65 1576.41 1310.1 1575.34 1310.37C1574.28 1310.65 1573.14 1310.79 1571.93 1310.79C1570.72 1310.79 1569.58 1310.65 1568.51 1310.37C1567.44 1310.1 1566.52 1309.65 1565.72 1309.04C1564.93 1308.42 1564.3 1307.65 1563.84 1306.71C1563.38 1305.78 1563.15 1304.68 1563.15 1303.43C1563.15 1302.17 1563.38 1301.08 1563.84 1300.14C1564.3 1299.21 1564.93 1298.43 1565.72 1297.82C1566.52 1297.2 1567.44 1296.74 1568.51 1296.43C1569.58 1296.12 1570.72 1295.97 1571.93 1295.97Z"/>
<path d="M1593.77 1302.21C1594.41 1302.21 1594.94 1302.09 1595.37 1301.86C1595.8 1301.63 1596.02 1301.16 1596.02 1300.46C1596.02 1299.77 1595.8 1299.3 1595.37 1299.02C1594.94 1298.75 1594.41 1298.61 1593.77 1298.61L1588.23 1298.61L1588.23 1302.21L1593.77 1302.21ZM1585.06 1297.26C1585.06 1296.93 1584.79 1296.76 1584.24 1296.76L1584.24 1296.17L1593.84 1296.17C1595.62 1296.17 1596.96 1296.49 1597.85 1297.12C1598.74 1297.76 1599.19 1298.87 1599.19 1300.46C1599.19 1302.04 1598.74 1303.14 1597.85 1303.74C1596.96 1304.35 1595.62 1304.65 1593.84 1304.65L1588.23 1304.65L1588.23 1309.6C1588.23 1309.93 1588.46 1310.09 1588.92 1310.09L1588.92 1310.69L1584.24 1310.69L1584.24 1310.09C1584.79 1310.09 1585.06 1309.93 1585.06 1309.6L1585.06 1297.26Z"/>
<path d="M1603.44 1310.09C1603.55 1310.07 1603.65 1310.03 1603.72 1309.96C1603.8 1309.89 1603.84 1309.74 1603.84 1309.5L1603.84 1297.42C1603.84 1297.11 1603.81 1296.93 1603.76 1296.86C1603.7 1296.79 1603.6 1296.76 1603.44 1296.76L1603.44 1296.17L1608.03 1296.17L1608.03 1296.76C1607.81 1296.76 1607.7 1296.86 1607.7 1297.06C1607.7 1297.15 1607.74 1297.26 1607.81 1297.4C1607.89 1297.55 1608.01 1297.75 1608.16 1298.01L1612.19 1305.44L1616.25 1298.05C1616.4 1297.78 1616.52 1297.57 1616.61 1297.4C1616.7 1297.24 1616.74 1297.12 1616.74 1297.06C1616.74 1296.86 1616.65 1296.76 1616.48 1296.76L1616.48 1296.17L1621.13 1296.17L1621.13 1296.76C1621.02 1296.76 1620.92 1296.79 1620.82 1296.84C1620.72 1296.9 1620.67 1297.01 1620.67 1297.19L1620.67 1309.6C1620.67 1309.77 1620.72 1309.9 1620.82 1309.98C1620.92 1310.05 1621.02 1310.09 1621.13 1310.09L1621.13 1310.69L1617.3 1310.69L1617.3 1310.09C1617.76 1310.09 1617.96 1309.93 1617.9 1309.6L1617.9 1300.32L1617.83 1300.32L1612.22 1310.69L1611.96 1310.69L1606.64 1300.32L1606.68 1300.32L1606.61 1300.32L1606.61 1309.6C1606.61 1309.93 1606.8 1310.09 1607.17 1310.09L1607.17 1310.69L1603.44 1310.69L1603.44 1310.09Z"/>
<path d="M1639.64 1299.24C1639.64 1298.82 1639.3 1298.61 1638.62 1298.61L1630.57 1298.61L1630.57 1301.91L1635.65 1301.91C1636.02 1301.91 1636.3 1301.88 1636.48 1301.83C1636.65 1301.77 1636.74 1301.62 1636.74 1301.38L1637.33 1301.38L1637.33 1304.88L1636.67 1304.88C1636.74 1304.64 1636.65 1304.49 1636.41 1304.43C1636.17 1304.38 1635.83 1304.35 1635.39 1304.35L1630.57 1304.35L1630.57 1308.24L1639.02 1308.24C1639.28 1308.24 1639.5 1308.18 1639.68 1308.06C1639.85 1307.94 1639.94 1307.78 1639.94 1307.58L1640.53 1307.58L1640.53 1311.05L1639.94 1311.05C1639.94 1310.85 1639.85 1310.74 1639.68 1310.72C1639.5 1310.7 1639.28 1310.69 1639.02 1310.69L1626.91 1310.69L1626.91 1310.09C1627.02 1310.09 1627.13 1310.05 1627.24 1309.98C1627.35 1309.9 1627.4 1309.77 1627.4 1309.6L1627.4 1297.26C1627.4 1297.08 1627.35 1296.95 1627.24 1296.88C1627.13 1296.8 1627.02 1296.76 1626.91 1296.76L1626.91 1296.17L1638.62 1296.17C1639.3 1296.17 1639.64 1295.97 1639.64 1295.57L1640.24 1295.57L1640.24 1299.24L1639.64 1299.24Z"/>
<path d="M1645.22 1310.09C1645.62 1310.09 1645.81 1309.93 1645.81 1309.6L1645.81 1297.26C1645.81 1296.93 1645.62 1296.76 1645.22 1296.76L1645.22 1296.17L1650.07 1296.17L1650.07 1296.76C1649.92 1296.78 1649.84 1296.84 1649.84 1296.93C1649.84 1297.04 1650.08 1297.33 1650.57 1297.82L1658.49 1306.2L1658.49 1297.26C1658.49 1296.93 1658.27 1296.76 1657.83 1296.76L1657.83 1296.17L1661.85 1296.17L1661.85 1296.76C1661.46 1296.76 1661.26 1296.93 1661.26 1297.26L1661.26 1309.6C1661.26 1309.93 1661.46 1310.09 1661.85 1310.09L1661.85 1310.69L1657.56 1310.69L1657.56 1310.09C1657.72 1310.09 1657.79 1310.04 1657.79 1309.93C1657.79 1309.84 1657.69 1309.69 1657.48 1309.47C1657.27 1309.25 1657.03 1308.99 1656.77 1308.71L1648.59 1299.99L1648.59 1309.6C1648.59 1309.93 1648.82 1310.09 1649.28 1310.09L1649.28 1310.69L1645.22 1310.69L1645.22 1310.09Z"/>
<path d="M1670.73 1310.09C1670.84 1310.09 1670.95 1310.05 1671.06 1309.98C1671.17 1309.9 1671.22 1309.77 1671.22 1309.6L1671.22 1298.61L1666.93 1298.61C1666.76 1298.61 1666.59 1298.65 1666.44 1298.74C1666.29 1298.83 1666.21 1298.97 1666.21 1299.17L1665.61 1299.17L1665.61 1295.37L1666.21 1295.37C1666.21 1295.68 1666.29 1295.89 1666.44 1296C1666.59 1296.11 1666.76 1296.17 1666.93 1296.17L1678.68 1296.17C1678.86 1296.17 1679.02 1296.11 1679.18 1296C1679.33 1295.89 1679.41 1295.68 1679.41 1295.37L1680 1295.37L1680 1299.17L1679.41 1299.17C1679.41 1298.97 1679.33 1298.83 1679.18 1298.74C1679.02 1298.65 1678.86 1298.61 1678.68 1298.61L1674.39 1298.61L1674.39 1309.6C1674.39 1309.93 1674.59 1310.09 1674.99 1310.09L1674.99 1310.69L1670.73 1310.69L1670.73 1310.09Z"/>
<path d="M1700.76 1295.57C1699.99 1295.57 1699.33 1295.75 1698.8 1296.12C1698.26 1296.48 1697.99 1297.05 1697.99 1297.82C1697.99 1298.59 1698.26 1299.15 1698.8 1299.52C1699.33 1299.88 1699.99 1300.06 1700.76 1300.06C1701.53 1300.06 1702.18 1299.88 1702.72 1299.52C1703.26 1299.15 1703.53 1298.59 1703.53 1297.82C1703.53 1297.05 1703.26 1296.48 1702.72 1296.12C1702.18 1295.75 1701.53 1295.57 1700.76 1295.57ZM1696.47 1305.18C1696.47 1305.73 1696.59 1306.2 1696.83 1306.59C1697.07 1306.99 1697.39 1307.31 1697.79 1307.55C1698.19 1307.79 1698.62 1307.97 1699.09 1308.08C1699.57 1308.19 1700.03 1308.24 1700.5 1308.24C1700.94 1308.24 1701.36 1308.17 1701.77 1308.03C1702.17 1307.89 1702.54 1307.71 1702.87 1307.49C1703.2 1307.27 1703.47 1307.02 1703.68 1306.74C1703.89 1306.47 1704.02 1306.19 1704.06 1305.9C1703.73 1305.44 1703.49 1304.98 1703.33 1304.53C1703.18 1304.08 1703 1303.67 1702.81 1303.31C1702.61 1302.95 1702.34 1302.66 1702.01 1302.44C1701.68 1302.22 1701.18 1302.11 1700.5 1302.11C1700.03 1302.11 1699.57 1302.16 1699.09 1302.27C1698.62 1302.38 1698.19 1302.56 1697.79 1302.8C1697.39 1303.04 1697.07 1303.36 1696.83 1303.74C1696.59 1304.13 1696.47 1304.6 1696.47 1305.18ZM1711.81 1310.79C1711 1310.79 1710.29 1310.73 1709.69 1310.6C1709.08 1310.48 1708.55 1310.31 1708.1 1310.09C1707.65 1309.87 1707.27 1309.63 1706.95 1309.35C1706.63 1309.08 1706.34 1308.79 1706.07 1308.51C1705.54 1308.95 1705.05 1309.32 1704.6 1309.61C1704.15 1309.91 1703.69 1310.15 1703.22 1310.34C1702.74 1310.53 1702.24 1310.65 1701.7 1310.7C1701.16 1310.76 1700.54 1310.79 1699.84 1310.79C1699.04 1310.79 1698.23 1310.7 1697.41 1310.52C1696.58 1310.35 1695.84 1310.05 1695.17 1309.63C1694.49 1309.21 1693.94 1308.67 1693.5 1308.01C1693.06 1307.35 1692.84 1306.56 1692.84 1305.64C1692.84 1304.91 1692.95 1304.28 1693.19 1303.74C1693.42 1303.2 1693.73 1302.73 1694.13 1302.34C1694.52 1301.94 1695 1301.61 1695.55 1301.35C1696.1 1301.08 1696.69 1300.86 1697.33 1300.69L1697.33 1300.62C1696.65 1300.4 1696.06 1300.01 1695.56 1299.45C1695.07 1298.89 1694.82 1298.23 1694.82 1297.49C1694.82 1296.72 1695 1296.06 1695.36 1295.52C1695.73 1294.98 1696.19 1294.53 1696.75 1294.17C1697.31 1293.81 1697.95 1293.54 1698.66 1293.38C1699.38 1293.21 1700.08 1293.13 1700.76 1293.13C1701.46 1293.13 1702.17 1293.21 1702.87 1293.38C1703.58 1293.54 1704.21 1293.81 1704.77 1294.17C1705.33 1294.53 1705.79 1294.98 1706.15 1295.52C1706.52 1296.06 1706.7 1296.72 1706.7 1297.49C1706.7 1298.26 1706.48 1298.92 1706.06 1299.48C1705.63 1300.04 1705.16 1300.41 1704.65 1300.59C1704.94 1300.79 1705.17 1301.02 1705.35 1301.3C1705.52 1301.57 1705.68 1301.85 1705.81 1302.12C1705.94 1302.4 1706.06 1302.66 1706.17 1302.92C1706.28 1303.17 1706.41 1303.37 1706.57 1303.53C1706.9 1302.93 1707.28 1302.38 1707.72 1301.88C1708.16 1301.37 1708.6 1300.92 1709.04 1300.54C1709.48 1300.15 1709.88 1299.85 1710.25 1299.62C1710.61 1299.38 1710.88 1299.25 1711.06 1299.2C1711.17 1299.16 1711.26 1299.11 1711.35 1299.05C1711.44 1299 1711.48 1298.93 1711.48 1298.84L1711.81 1298.84L1711.81 1303.92L1711.48 1303.92C1711.44 1303.79 1711.37 1303.64 1711.27 1303.46C1711.17 1303.28 1711 1303.2 1710.76 1303.2C1710.49 1303.2 1710.24 1303.31 1710 1303.53C1709.76 1303.75 1709.54 1304.02 1709.34 1304.33C1709.14 1304.65 1708.97 1304.98 1708.81 1305.31C1708.66 1305.64 1708.55 1305.91 1708.48 1306.13C1708.79 1306.53 1709.16 1306.89 1709.59 1307.21C1710.02 1307.52 1710.42 1307.69 1710.79 1307.72C1711.1 1307.72 1711.29 1307.62 1711.37 1307.42C1711.45 1307.22 1711.48 1307 1711.48 1306.76L1711.81 1306.76L1711.81 1310.79Z"/>
<path d="M1737.85 1296.17C1737.02 1296.17 1736.18 1296.3 1735.34 1296.56C1734.51 1296.83 1733.75 1297.21 1733.08 1297.7C1732.41 1298.2 1731.87 1298.81 1731.45 1299.53C1731.03 1300.26 1730.82 1301.08 1730.82 1302.01C1730.82 1302.93 1731.03 1303.76 1731.45 1304.48C1731.87 1305.21 1732.41 1305.82 1733.08 1306.31C1733.75 1306.81 1734.51 1307.19 1735.34 1307.45C1736.18 1307.72 1737.02 1307.85 1737.85 1307.85C1738.69 1307.85 1739.52 1307.72 1740.36 1307.45C1741.2 1307.19 1741.95 1306.81 1742.62 1306.31C1743.29 1305.82 1743.84 1305.21 1744.25 1304.48C1744.67 1303.76 1744.88 1302.93 1744.88 1302.01C1744.88 1301.08 1744.67 1300.26 1744.25 1299.53C1743.84 1298.81 1743.29 1298.2 1742.62 1297.7C1741.95 1297.21 1741.2 1296.83 1740.36 1296.56C1739.52 1296.3 1738.69 1296.17 1737.85 1296.17ZM1737.85 1293.13C1739.06 1293.13 1740.29 1293.31 1741.55 1293.68C1742.8 1294.04 1743.95 1294.58 1744.98 1295.31C1746.01 1296.03 1746.86 1296.95 1747.52 1298.06C1748.18 1299.18 1748.51 1300.49 1748.51 1302.01C1748.51 1303.53 1748.18 1304.84 1747.52 1305.95C1746.86 1307.06 1746.01 1307.98 1744.98 1308.71C1743.95 1309.43 1742.8 1309.96 1741.55 1310.29C1740.29 1310.62 1739.06 1310.79 1737.85 1310.79C1736.64 1310.79 1735.41 1310.62 1734.16 1310.29C1732.9 1309.96 1731.76 1309.43 1730.72 1308.71C1729.69 1307.98 1728.84 1307.06 1728.18 1305.95C1727.52 1304.84 1727.19 1303.53 1727.19 1302.01C1727.19 1300.49 1727.52 1299.18 1728.18 1298.06C1728.84 1296.95 1729.69 1296.03 1730.72 1295.31C1731.76 1294.58 1732.9 1294.04 1734.16 1293.68C1735.41 1293.31 1736.64 1293.13 1737.85 1293.13Z"/>
<path d="M1762.44 1302.21C1763.07 1302.21 1763.61 1302.09 1764.04 1301.86C1764.47 1301.63 1764.68 1301.16 1764.68 1300.46C1764.68 1299.77 1764.47 1299.3 1764.04 1299.02C1763.61 1298.75 1763.07 1298.61 1762.44 1298.61L1756.89 1298.61L1756.89 1302.21L1762.44 1302.21ZM1753.72 1297.26C1753.72 1296.93 1753.45 1296.76 1752.9 1296.76L1752.9 1296.17L1762.5 1296.17C1764.28 1296.17 1765.62 1296.49 1766.51 1297.12C1767.4 1297.76 1767.85 1298.87 1767.85 1300.46C1767.85 1302.04 1767.4 1303.14 1766.51 1303.74C1765.62 1304.35 1764.28 1304.65 1762.5 1304.65L1756.89 1304.65L1756.89 1309.6C1756.89 1309.93 1757.12 1310.09 1757.59 1310.09L1757.59 1310.69L1752.9 1310.69L1752.9 1310.09C1753.45 1310.09 1753.72 1309.93 1753.72 1309.6L1753.72 1297.26Z"/>
<path d="M1784.48 1299.24C1784.48 1298.82 1784.14 1298.61 1783.46 1298.61L1775.41 1298.61L1775.41 1301.91L1780.49 1301.91C1780.86 1301.91 1781.14 1301.88 1781.31 1301.83C1781.49 1301.77 1781.58 1301.62 1781.58 1301.38L1782.17 1301.38L1782.17 1304.88L1781.51 1304.88C1781.58 1304.64 1781.49 1304.49 1781.25 1304.43C1781 1304.38 1780.66 1304.35 1780.22 1304.35L1775.41 1304.35L1775.41 1308.24L1783.85 1308.24C1784.12 1308.24 1784.34 1308.18 1784.51 1308.06C1784.69 1307.94 1784.78 1307.78 1784.78 1307.58L1785.37 1307.58L1785.37 1311.05L1784.78 1311.05C1784.78 1310.85 1784.69 1310.74 1784.51 1310.72C1784.34 1310.7 1784.12 1310.69 1783.85 1310.69L1771.74 1310.69L1771.74 1310.09C1771.85 1310.09 1771.96 1310.05 1772.07 1309.98C1772.18 1309.9 1772.24 1309.77 1772.24 1309.6L1772.24 1297.26C1772.24 1297.08 1772.18 1296.95 1772.07 1296.88C1771.96 1296.8 1771.85 1296.76 1771.74 1296.76L1771.74 1296.17L1783.46 1296.17C1784.14 1296.17 1784.48 1295.97 1784.48 1295.57L1785.07 1295.57L1785.07 1299.24L1784.48 1299.24Z"/>
<path d="M1799 1302.44C1801.16 1302.44 1802.23 1301.75 1802.23 1300.39C1802.23 1299.84 1801.98 1299.41 1801.46 1299.09C1800.94 1298.77 1800.12 1298.61 1799 1298.61L1793.79 1298.61L1793.79 1302.44L1799 1302.44ZM1799.07 1296.17C1801.02 1296.17 1802.55 1296.49 1803.65 1297.14C1804.75 1297.79 1805.3 1298.89 1805.3 1300.46C1805.3 1301.05 1805.19 1301.58 1804.97 1302.04C1804.75 1302.5 1804.46 1302.9 1804.1 1303.25C1803.74 1303.59 1803.33 1303.86 1802.89 1304.07C1802.45 1304.28 1802 1304.44 1801.54 1304.55L1804.78 1309.27C1804.95 1309.51 1805.14 1309.69 1805.35 1309.81C1805.56 1309.93 1805.79 1310.03 1806.03 1310.09L1806.03 1310.69L1800.98 1310.69L1800.98 1310.09C1801.27 1310.09 1801.41 1309.99 1801.41 1309.8C1801.41 1309.58 1801.24 1309.23 1800.91 1308.77L1798.31 1304.88L1793.72 1304.88L1793.72 1309.6C1793.72 1309.77 1793.79 1309.9 1793.93 1309.98C1794.08 1310.05 1794.22 1310.09 1794.35 1310.09L1794.35 1310.69L1789.96 1310.69L1789.96 1310.09C1790.35 1310.09 1790.55 1309.93 1790.55 1309.6L1790.55 1297.26C1790.55 1296.93 1790.35 1296.76 1789.96 1296.76L1789.96 1296.17L1799.07 1296.17Z"/>
<path d="M1819.06 1304.61L1816.39 1299.07L1814.05 1304.61L1819.06 1304.61ZM1808.04 1310.09C1808.31 1310.05 1808.52 1309.92 1808.69 1309.71C1808.85 1309.5 1808.98 1309.31 1809.07 1309.14L1813.98 1298.41C1814.11 1298.1 1814.22 1297.86 1814.3 1297.67C1814.37 1297.48 1814.41 1297.3 1814.41 1297.12C1814.41 1296.99 1814.38 1296.91 1814.33 1296.88C1814.27 1296.84 1814.21 1296.8 1814.15 1296.76L1814.15 1296.17L1819.13 1296.17L1819.13 1296.76C1819.06 1296.8 1818.99 1296.84 1818.92 1296.86C1818.84 1296.88 1818.8 1296.97 1818.8 1297.12C1818.8 1297.26 1818.85 1297.42 1818.95 1297.6C1819.05 1297.79 1819.15 1298 1819.26 1298.25L1824.61 1309.47C1824.72 1309.66 1824.84 1309.81 1824.97 1309.89C1825.1 1309.98 1825.25 1310.05 1825.4 1310.09L1825.4 1310.69L1820.71 1310.69L1820.71 1310.19C1820.82 1310.19 1820.94 1310.16 1821.06 1310.09C1821.18 1310.03 1821.24 1309.91 1821.24 1309.73C1821.24 1309.6 1821.22 1309.48 1821.18 1309.37C1821.13 1309.26 1821.08 1309.11 1821.01 1308.94L1820.12 1307.06L1813.06 1307.06L1812.13 1308.84C1812.05 1309.01 1811.97 1309.17 1811.92 1309.32C1811.86 1309.46 1811.84 1309.59 1811.84 1309.7C1811.84 1309.87 1811.89 1309.98 1812 1310.03C1812.11 1310.07 1812.27 1310.09 1812.46 1310.09L1812.46 1310.69L1808.04 1310.69L1808.04 1310.09Z"/>
<path d="M1832.07 1310.09C1832.18 1310.09 1832.29 1310.05 1832.4 1309.98C1832.51 1309.9 1832.56 1309.77 1832.56 1309.6L1832.56 1298.61L1828.27 1298.61C1828.1 1298.61 1827.93 1298.65 1827.78 1298.74C1827.62 1298.83 1827.55 1298.97 1827.55 1299.17L1826.95 1299.17L1826.95 1295.37L1827.55 1295.37C1827.55 1295.68 1827.62 1295.89 1827.78 1296C1827.93 1296.11 1828.1 1296.17 1828.27 1296.17L1840.02 1296.17C1840.2 1296.17 1840.36 1296.11 1840.51 1296C1840.67 1295.89 1840.75 1295.68 1840.75 1295.37L1841.34 1295.37L1841.34 1299.17L1840.75 1299.17C1840.75 1298.97 1840.67 1298.83 1840.51 1298.74C1840.36 1298.65 1840.2 1298.61 1840.02 1298.61L1835.73 1298.61L1835.73 1309.6C1835.73 1309.93 1835.93 1310.09 1836.32 1310.09L1836.32 1310.69L1832.07 1310.69L1832.07 1310.09Z"/>
<path d="M1845.37 1310.09C1845.72 1310.09 1845.96 1310.05 1846.09 1309.98C1846.22 1309.9 1846.29 1309.77 1846.29 1309.6L1846.29 1297.26C1846.29 1297.08 1846.22 1296.95 1846.09 1296.88C1845.96 1296.8 1845.72 1296.76 1845.37 1296.76L1845.37 1296.17L1850.38 1296.17L1850.38 1296.76C1849.77 1296.76 1849.46 1296.93 1849.46 1297.26L1849.46 1309.6C1849.46 1309.93 1849.77 1310.09 1850.38 1310.09L1850.38 1310.69L1845.37 1310.69L1845.37 1310.09Z"/>
<path d="M1863.45 1298.41C1862.75 1298.41 1862.06 1298.53 1861.39 1298.76C1860.72 1298.99 1860.12 1299.32 1859.59 1299.75C1859.06 1300.18 1858.64 1300.7 1858.32 1301.31C1858 1301.93 1857.84 1302.63 1857.84 1303.43C1857.84 1304.22 1858 1304.92 1858.32 1305.54C1858.64 1306.15 1859.06 1306.68 1859.59 1307.11C1860.12 1307.54 1860.72 1307.87 1861.39 1308.1C1862.06 1308.33 1862.75 1308.44 1863.45 1308.44C1864.15 1308.44 1864.84 1308.33 1865.51 1308.1C1866.18 1307.87 1866.78 1307.54 1867.31 1307.11C1867.84 1306.68 1868.26 1306.15 1868.58 1305.54C1868.9 1304.92 1869.06 1304.22 1869.06 1303.43C1869.06 1302.63 1868.9 1301.93 1868.58 1301.31C1868.26 1300.7 1867.84 1300.18 1867.31 1299.75C1866.78 1299.32 1866.18 1298.99 1865.51 1298.76C1864.84 1298.53 1864.15 1298.41 1863.45 1298.41ZM1863.45 1295.97C1864.66 1295.97 1865.8 1296.12 1866.86 1296.43C1867.93 1296.74 1868.86 1297.2 1869.65 1297.82C1870.45 1298.43 1871.07 1299.21 1871.53 1300.14C1872 1301.08 1872.23 1302.17 1872.23 1303.43C1872.23 1304.68 1872 1305.78 1871.53 1306.71C1871.07 1307.65 1870.45 1308.42 1869.65 1309.04C1868.86 1309.65 1867.93 1310.1 1866.86 1310.37C1865.8 1310.65 1864.66 1310.79 1863.45 1310.79C1862.24 1310.79 1861.1 1310.65 1860.03 1310.37C1858.97 1310.1 1858.04 1309.65 1857.25 1309.04C1856.45 1308.42 1855.83 1307.65 1855.36 1306.71C1854.9 1305.78 1854.67 1304.68 1854.67 1303.43C1854.67 1302.17 1854.9 1301.08 1855.36 1300.14C1855.83 1299.21 1856.45 1298.43 1857.25 1297.82C1858.04 1297.2 1858.97 1296.74 1860.03 1296.43C1861.1 1296.12 1862.24 1295.97 1863.45 1295.97Z"/>
<path d="M1876.22 1310.09C1876.62 1310.09 1876.81 1309.93 1876.81 1309.6L1876.81 1297.26C1876.81 1296.93 1876.62 1296.76 1876.22 1296.76L1876.22 1296.17L1881.07 1296.17L1881.07 1296.76C1880.92 1296.78 1880.84 1296.84 1880.84 1296.93C1880.84 1297.04 1881.08 1297.33 1881.57 1297.82L1889.49 1306.2L1889.49 1297.26C1889.49 1296.93 1889.27 1296.76 1888.83 1296.76L1888.83 1296.17L1892.85 1296.17L1892.85 1296.76C1892.46 1296.76 1892.26 1296.93 1892.26 1297.26L1892.26 1309.6C1892.26 1309.93 1892.46 1310.09 1892.85 1310.09L1892.85 1310.69L1888.56 1310.69L1888.56 1310.09C1888.72 1310.09 1888.79 1310.04 1888.79 1309.93C1888.79 1309.84 1888.69 1309.69 1888.48 1309.47C1888.27 1309.25 1888.03 1308.99 1887.77 1308.71L1879.59 1299.99L1879.59 1309.6C1879.59 1309.93 1879.82 1310.09 1880.28 1310.09L1880.28 1310.69L1876.22 1310.69L1876.22 1310.09Z"/>
<path d="M1899.22 1305.64C1899.22 1305.73 1899.22 1305.82 1899.2 1305.92C1899.19 1306.02 1899.19 1306.12 1899.19 1306.23C1899.19 1306.56 1899.4 1306.86 1899.82 1307.14C1900.23 1307.41 1900.73 1307.65 1901.32 1307.83C1901.9 1308.02 1902.48 1308.17 1903.07 1308.28C1903.65 1308.39 1904.11 1308.44 1904.44 1308.44C1904.74 1308.44 1905.12 1308.42 1905.57 1308.38C1906.02 1308.33 1906.47 1308.24 1906.91 1308.1C1907.35 1307.95 1907.72 1307.76 1908.03 1307.5C1908.34 1307.25 1908.49 1306.91 1908.49 1306.5C1908.49 1306.01 1908.22 1305.66 1907.69 1305.44C1907.15 1305.22 1906.47 1305.05 1905.66 1304.93C1904.84 1304.81 1903.96 1304.69 1903.02 1304.57C1902.07 1304.44 1901.19 1304.25 1900.38 1303.97C1899.56 1303.7 1898.89 1303.3 1898.35 1302.78C1897.81 1302.27 1897.54 1301.53 1897.54 1300.59C1897.54 1299.18 1898.12 1298.06 1899.29 1297.22C1900.45 1296.39 1902.09 1295.97 1904.2 1295.97C1905.24 1295.97 1906.12 1296.05 1906.86 1296.22C1907.6 1296.38 1908.22 1296.56 1908.73 1296.76C1909.23 1296.96 1909.64 1297.14 1909.96 1297.31C1910.28 1297.47 1910.52 1297.55 1910.67 1297.55C1910.85 1297.55 1910.98 1297.53 1911.07 1297.47C1911.16 1297.42 1911.27 1297.35 1911.4 1297.29L1911.76 1297.65L1910.11 1300.75L1909.52 1300.56C1909.5 1300.42 1909.47 1300.29 1909.45 1300.16C1909.43 1300.03 1909.33 1299.9 1909.15 1299.76C1908.71 1299.39 1908.03 1299.07 1907.11 1298.81C1906.18 1298.54 1905.15 1298.41 1904.01 1298.41C1903.57 1298.41 1903.15 1298.44 1902.75 1298.49C1902.36 1298.55 1902 1298.64 1901.7 1298.77C1901.39 1298.91 1901.15 1299.08 1900.97 1299.29C1900.79 1299.49 1900.71 1299.75 1900.71 1300.06C1900.71 1300.54 1900.98 1300.89 1901.51 1301.1C1902.05 1301.31 1902.73 1301.47 1903.54 1301.6C1904.36 1301.72 1905.24 1301.84 1906.18 1301.96C1907.13 1302.08 1908.01 1302.28 1908.82 1302.57C1909.64 1302.85 1910.31 1303.27 1910.85 1303.82C1911.39 1304.37 1911.66 1305.13 1911.66 1306.1C1911.66 1307.07 1911.43 1307.86 1910.95 1308.48C1910.48 1309.09 1909.89 1309.58 1909.19 1309.93C1908.48 1310.28 1907.71 1310.51 1906.86 1310.62C1906.01 1310.73 1905.22 1310.79 1904.47 1310.79C1903.72 1310.79 1902.98 1310.71 1902.24 1310.57C1901.5 1310.43 1900.83 1310.26 1900.23 1310.08C1899.62 1309.89 1899.11 1309.71 1898.69 1309.55C1898.28 1309.38 1898.02 1309.3 1897.93 1309.3C1897.78 1309.3 1897.65 1309.37 1897.54 1309.5L1897.08 1309.17L1898.59 1305.47L1899.22 1305.64Z"/>
</g>
</g>
<g filter="url(#Filter)" vectornator:layerName="Group 5" vectornator:shadowAngle="1.5708" vectornator:shadowColor="#000000" vectornator:shadowOffset="10" vectornator:shadowOpacity="0.333" vectornator:shadowRadius="10">
<g opacity="1" vectornator:layerName="Polygon 1">
<path d="M1251.79 1193.42C1257.75 1190.54 1264.71 1190.54 1270.67 1193.42L1309.02 1212C1316.49 1215.62 1321.23 1223.18 1321.23 1231.48L1321.23 1262.47C1321.23 1270.77 1316.49 1278.34 1309.02 1281.95L1270.67 1300.53C1264.71 1303.42 1257.75 1303.42 1251.79 1300.53L1213.44 1281.95C1205.97 1278.34 1201.23 1270.77 1201.23 1262.47L1201.23 1231.48C1201.23 1223.18 1205.97 1215.62 1213.44 1212L1251.79 1193.42Z" fill="#000000" fill-opacity="0" fill-rule="nonzero" stroke="none"/>
<path d="M1263.22 1186.41C1260.64 1186.21 1260.82 1186.66 1252.53 1188.38C1251.54 1188.23 1250.51 1188.28 1249.53 1188.75C1241.14 1192.82 1243.92 1191.46 1241.12 1192.81C1236.33 1195.14 1231.54 1197.46 1226.75 1199.78C1222.76 1201.72 1218.78 1203.66 1214.78 1205.59C1212.06 1206.91 1209.29 1208.15 1206.84 1209.97C1202.85 1212.94 1199.73 1217.03 1197.91 1221.66C1196.99 1223.99 1196.43 1226.44 1196.19 1228.94C1195.98 1231.07 1196.06 1233.21 1196.06 1235.34C1196.06 1237.93 1196.06 1240.51 1196.06 1243.09C1196.06 1248.26 1196.06 1253.43 1196.06 1258.59C1196.06 1261.58 1196 1264.55 1196.56 1267.5C1197.9 1274.46 1202.03 1280.73 1207.91 1284.69C1211.12 1286.85 1214.92 1288.38 1218.41 1290.06C1224 1292.77 1229.59 1295.45 1235.19 1298.16C1238.79 1299.89 1242.37 1301.64 1245.97 1303.38C1248.69 1304.69 1251.37 1306.09 1254.31 1306.87C1258.82 1308.08 1263.62 1308.05 1268.12 1306.84C1271.06 1306.05 1273.75 1304.67 1276.47 1303.34C1280.06 1301.6 1283.66 1299.84 1287.25 1298.09C1293.24 1295.18 1299.23 1292.29 1305.22 1289.37C1308.33 1287.86 1311.62 1286.51 1314.5 1284.56C1318.26 1282.02 1321.34 1278.52 1323.38 1274.47C1324.86 1271.51 1325.78 1268.29 1326.09 1265C1326.29 1262.87 1326.19 1260.73 1326.19 1258.59C1326.18 1256.01 1326.19 1253.43 1326.19 1250.84C1326.18 1246.32 1326.19 1241.8 1326.19 1237.28C1326.19 1234.51 1326.33 1231.7 1326.06 1228.94C1325.71 1225.24 1324.58 1221.64 1322.75 1218.41C1320.93 1215.19 1318.43 1212.36 1315.47 1210.16C1313.04 1208.35 1310.28 1207.12 1307.56 1205.81C1304.77 1204.46 1301.98 1203.1 1299.19 1201.75C1292.4 1198.46 1285.6 1195.19 1278.81 1191.91C1276.22 1190.65 1273.65 1189.24 1270.97 1188.19C1268.49 1187.21 1265.87 1186.61 1263.22 1186.41ZM1262.19 1196.22C1263.54 1196.3 1264.86 1196.54 1266.16 1196.94C1267.82 1197.45 1269.35 1198.24 1270.91 1199C1272.1 1199.58 1273.3 1200.17 1274.5 1200.75C1275.7 1201.33 1276.9 1201.92 1278.09 1202.5C1280.09 1203.47 1282.1 1204.44 1284.09 1205.41C1290.09 1208.31 1296.07 1211.22 1302.06 1214.12C1304.35 1215.24 1306.82 1216.2 1308.94 1217.62C1311.73 1219.51 1313.89 1222.25 1315.12 1225.38C1316.16 1228.01 1316.28 1230.61 1316.28 1233.41C1316.28 1235.34 1316.28 1237.28 1316.28 1239.22C1316.28 1243.74 1316.28 1248.26 1316.28 1252.78C1316.28 1255.36 1316.25 1257.95 1316.25 1260.53C1316.25 1262.25 1316.29 1263.94 1315.97 1265.62C1315.24 1269.43 1313.15 1272.89 1310.16 1275.34C1308.44 1276.75 1306.43 1277.63 1304.44 1278.59C1302.44 1279.56 1300.44 1280.54 1298.44 1281.5C1291.64 1284.78 1284.86 1288.06 1278.06 1291.34C1275.66 1292.5 1273.24 1293.65 1270.84 1294.81C1267.62 1296.37 1264.86 1297.63 1261.22 1297.62C1256.69 1297.62 1253.2 1295.56 1249.22 1293.62C1245.23 1291.68 1241.24 1289.75 1237.25 1287.81C1232.06 1285.29 1226.85 1282.77 1221.66 1280.25C1220.06 1279.47 1218.47 1278.68 1216.88 1277.91C1215.77 1277.37 1214.68 1276.85 1213.66 1276.16C1210.05 1273.72 1207.5 1269.87 1206.69 1265.59C1206.14 1262.68 1206.4 1259.6 1206.41 1256.66C1206.41 1252.14 1206.4 1247.61 1206.41 1243.09C1206.41 1239.87 1206.41 1236.63 1206.41 1233.41C1206.41 1230.64 1206.53 1228.04 1207.56 1225.44C1208.69 1222.6 1210.58 1220.1 1213.03 1218.28C1214.59 1217.12 1216.35 1216.34 1218.09 1215.5C1219.69 1214.73 1221.31 1213.96 1222.91 1213.19C1229.7 1209.9 1236.49 1206.6 1243.28 1203.31C1245.28 1202.35 1247.28 1201.37 1249.28 1200.41C1250.45 1199.84 1249.27 1200.41 1254.06 1198.09C1254.32 1197.97 1254.49 1197.75 1254.72 1197.59C1256.6 1196.92 1256.98 1196.69 1258.12 1196.47C1259.45 1196.22 1260.84 1196.14 1262.19 1196.22Z" fill="#5d8b32" stroke="none"/>
</g>
<g opacity="1" vectornator:layerName="Group 4">
<g opacity="1" vectornator:layerName="Group 4">
<g opacity="1" vectornator:layerName="Group 1">
<g opacity="1" vectornator:layerName="Line 1">
<path d="M1320.56 1164.28C1317.69 1164.28 1315.37 1166.6 1315.38 1169.47C1315.38 1172.34 1317.69 1174.69 1320.56 1174.69C1335.5 1174.65 1350.44 1174.43 1365.38 1174.41C1368.09 1174.41 1370.28 1172.19 1370.28 1169.47C1370.28 1166.75 1368.09 1164.56 1365.38 1164.56C1350.44 1164.54 1335.5 1164.32 1320.56 1164.28Z" fill="#5d8b32" stroke="none"/>
</g>
<g opacity="1" vectornator:layerName="Line 1">
<path d="M1320.16 1164.28C1318.83 1164.39 1317.56 1165 1316.62 1166.09C1311.14 1172.56 1305.81 1179.17 1300.31 1185.62C1298.55 1187.69 1298.78 1190.8 1300.84 1192.56C1302.91 1194.33 1306.02 1194.07 1307.78 1192C1313.31 1185.57 1318.99 1179.26 1324.53 1172.84C1326.4 1170.66 1326.12 1167.4 1323.94 1165.53C1322.85 1164.6 1321.48 1164.18 1320.16 1164.28Z" fill="#5d8b32" stroke="none"/>
</g>
<g opacity="1" vectornator:layerName="path 2">
<path d="M1387.94 1141.78C1387.2 1141.77 1386.52 1141.92 1385.88 1142.19C1385.62 1142.2 1384.74 1142.23 1384.16 1142.31C1382.65 1142.52 1381.17 1142.83 1379.72 1143.28C1372.37 1145.56 1366.17 1150.98 1362.94 1157.97C1361.54 1160.99 1360.7 1164.27 1360.47 1167.59C1359.48 1181.94 1369.86 1194.81 1384.12 1196.78C1387.21 1197.21 1390.39 1197.11 1393.44 1196.5C1405.54 1194.06 1414.61 1183.68 1415.47 1171.38C1415.69 1168.27 1415.39 1165.13 1414.56 1162.12C1412.09 1153.13 1405 1145.81 1396.09 1143.03C1394.33 1142.48 1392.52 1142.12 1390.69 1141.94C1390.06 1141.87 1390.68 1141.93 1387.94 1141.78ZM1386.66 1151.94C1386.68 1151.94 1386.7 1151.93 1386.72 1151.94C1387.08 1152.02 1387.4 1152.18 1387.78 1152.19C1390.22 1152.34 1389.42 1152.24 1390.22 1152.34C1391.16 1152.47 1392.12 1152.66 1393.03 1152.94C1397.86 1154.43 1401.87 1158.1 1403.84 1162.75C1404.67 1164.69 1405.11 1166.77 1405.19 1168.88C1405.54 1178.92 1397.29 1187.19 1387.25 1186.91C1385.32 1186.85 1383.4 1186.47 1381.59 1185.78C1371.76 1182.04 1367.43 1170.36 1372.44 1161.09C1374.69 1156.92 1378.61 1153.8 1383.19 1152.53C1384.32 1152.22 1385.48 1152.02 1386.66 1151.94Z" fill="#5d8b32" stroke="none"/>
</g>
<g opacity="1" vectornator:layerName="Line 1">
<path d="M1200.84 1319.19C1185.91 1319.25 1170.97 1319.49 1156.03 1319.53C1153.31 1319.54 1151.12 1321.72 1151.12 1324.44C1151.13 1327.16 1153.34 1329.38 1156.06 1329.38C1171 1329.37 1185.91 1329.55 1200.84 1329.56C1203.71 1329.56 1206.04 1327.25 1206.03 1324.38C1206.03 1321.5 1203.71 1319.18 1200.84 1319.19Z" fill="#5d8b32" stroke="none"/>
</g>
<g opacity="1" vectornator:layerName="Line 1">
<path d="M1216.94 1300.09C1215.68 1300.19 1214.48 1300.78 1213.59 1301.81C1208.08 1308.25 1202.4 1314.57 1196.88 1321C1195.01 1323.18 1195.28 1326.48 1197.47 1328.34C1199.65 1330.21 1202.95 1329.93 1204.81 1327.75C1210.28 1321.27 1215.61 1314.69 1221.09 1308.22C1222.86 1306.15 1222.6 1303.04 1220.53 1301.28C1219.5 1300.4 1218.19 1299.99 1216.94 1300.09Z" fill="#5d8b32" stroke="none"/>
</g>
<g opacity="1" vectornator:layerName="path 2">
<path d="M1132.56 1296.94C1131.01 1296.99 1129.46 1297.16 1127.94 1297.47C1115.84 1299.93 1106.78 1310.32 1105.94 1322.62C1105.73 1325.73 1106.05 1328.87 1106.88 1331.88C1109.36 1340.87 1116.43 1348.17 1125.34 1350.94C1127.1 1351.48 1128.92 1351.85 1130.75 1352.03C1131.37 1352.09 1130.76 1352.05 1133.5 1352.19C1134.22 1352.2 1134.91 1352.04 1135.53 1351.78C1135.8 1351.77 1136.68 1351.74 1137.28 1351.66C1138.79 1351.45 1140.27 1351.11 1141.72 1350.66C1149.07 1348.36 1155.25 1342.93 1158.47 1335.94C1159.86 1332.91 1160.71 1329.64 1160.94 1326.31C1161.91 1311.96 1151.49 1299.1 1137.22 1297.16C1135.68 1296.95 1134.12 1296.89 1132.56 1296.94ZM1134.12 1307.03C1136.06 1307.08 1137.97 1307.47 1139.78 1308.16C1149.62 1311.88 1154 1323.54 1149 1332.81C1146.75 1336.99 1142.82 1340.13 1138.25 1341.41C1137.12 1341.72 1135.95 1341.92 1134.78 1342C1134.77 1342 1134.7 1342 1134.69 1342C1134.34 1341.92 1134.03 1341.79 1133.66 1341.78C1131.22 1341.63 1132.01 1341.73 1131.22 1341.62C1130.27 1341.5 1129.32 1341.28 1128.41 1341C1123.58 1339.51 1119.57 1335.9 1117.59 1331.25C1116.77 1329.31 1116.3 1327.2 1116.22 1325.09C1115.85 1315.05 1124.08 1306.76 1134.12 1307.03Z" fill="#5d8b32" stroke="none"/>
</g>
<g opacity="1" vectornator:layerName="Line 1">
<path d="M1320.56 1319.28C1317.69 1319.28 1315.37 1321.6 1315.38 1324.47C1315.38 1327.34 1317.69 1329.69 1320.56 1329.69C1335.5 1329.65 1350.44 1329.43 1365.38 1329.41C1368.09 1329.41 1370.28 1327.19 1370.28 1324.47C1370.28 1321.75 1368.09 1319.56 1365.38 1319.56C1350.44 1319.54 1335.5 1319.32 1320.56 1319.28Z" fill="#5d8b32" stroke="none"/>
</g>
<g opacity="1" vectornator:layerName="Line 1">
<path d="M1304.44 1300.25C1303.18 1300.15 1301.88 1300.52 1300.84 1301.41C1298.78 1303.17 1298.55 1306.28 1300.31 1308.34C1305.81 1314.8 1311.14 1321.37 1316.62 1327.84C1318.49 1330.03 1321.76 1330.3 1323.94 1328.44C1326.12 1326.57 1326.4 1323.28 1324.53 1321.09C1318.99 1314.67 1313.31 1308.37 1307.78 1301.94C1306.9 1300.9 1305.69 1300.35 1304.44 1300.25Z" fill="#5d8b32" stroke="none"/>
</g>
<g opacity="1" vectornator:layerName="path 2">
<path d="M1387.94 1296.78C1387.2 1296.77 1386.52 1296.92 1385.88 1297.19C1385.62 1297.2 1384.74 1297.23 1384.16 1297.31C1382.65 1297.52 1381.17 1297.83 1379.72 1298.28C1372.37 1300.56 1366.17 1305.98 1362.94 1312.97C1361.54 1315.99 1360.7 1319.27 1360.47 1322.59C1359.48 1336.94 1369.86 1349.81 1384.12 1351.78C1387.21 1352.21 1390.39 1352.11 1393.44 1351.5C1405.54 1349.06 1414.61 1338.68 1415.47 1326.37C1415.69 1323.27 1415.39 1320.13 1414.56 1317.12C1412.09 1308.13 1405 1300.81 1396.09 1298.03C1394.33 1297.48 1392.52 1297.12 1390.69 1296.94C1390.06 1296.87 1390.68 1296.93 1387.94 1296.78ZM1386.66 1306.94C1386.68 1306.94 1386.7 1306.93 1386.72 1306.94C1387.08 1307.02 1387.4 1307.18 1387.78 1307.19C1390.22 1307.34 1389.42 1307.24 1390.22 1307.34C1391.16 1307.47 1392.12 1307.66 1393.03 1307.94C1397.86 1309.43 1401.87 1313.1 1403.84 1317.75C1404.67 1319.69 1405.11 1321.77 1405.19 1323.88C1405.54 1333.92 1397.29 1342.19 1387.25 1341.91C1385.32 1341.85 1383.4 1341.47 1381.59 1340.78C1371.76 1337.04 1367.43 1325.36 1372.44 1316.09C1374.69 1311.92 1378.61 1308.8 1383.19 1307.53C1384.32 1307.22 1385.48 1307.02 1386.66 1306.94Z" fill="#5d8b32" stroke="none"/>
</g>
<g opacity="1" vectornator:layerName="Line 1">
<path d="M1200.84 1164.12C1185.91 1164.2 1170.97 1164.45 1156.03 1164.5C1153.31 1164.51 1151.12 1166.72 1151.13 1169.44C1151.13 1172.16 1153.34 1174.35 1156.06 1174.34C1171 1174.33 1185.91 1174.53 1200.84 1174.53C1203.71 1174.52 1206.04 1172.18 1206.03 1169.31C1206.02 1166.44 1203.71 1164.12 1200.84 1164.12Z" fill="#5d8b32" stroke="none"/>
</g>
<g opacity="1" vectornator:layerName="Line 1">
<path d="M1201.25 1164.16C1199.92 1164.06 1198.56 1164.44 1197.47 1165.38C1195.29 1167.24 1195.04 1170.54 1196.91 1172.72C1202.46 1179.13 1208.15 1185.42 1213.69 1191.84C1215.46 1193.91 1218.56 1194.15 1220.62 1192.38C1222.69 1190.6 1222.93 1187.47 1221.16 1185.41C1215.65 1178.96 1210.28 1172.4 1204.78 1165.94C1203.85 1164.85 1202.58 1164.26 1201.25 1164.16Z" fill="#5d8b32" stroke="none"/>
</g>
<g opacity="1" vectornator:layerName="path 2">
<path d="M1132.56 1141.94C1131.01 1141.99 1129.46 1142.16 1127.94 1142.47C1115.84 1144.93 1106.77 1155.35 1105.94 1167.66C1105.73 1170.76 1106.04 1173.91 1106.88 1176.91C1109.37 1185.9 1116.46 1193.18 1125.38 1195.94C1127.14 1196.48 1128.95 1196.85 1130.78 1197.03C1131.41 1197.09 1130.79 1197.05 1133.53 1197.19C1134.25 1197.2 1134.94 1197.04 1135.56 1196.78C1135.83 1196.77 1136.71 1196.74 1137.31 1196.66C1138.82 1196.45 1140.3 1196.11 1141.75 1195.66C1149.1 1193.36 1155.28 1187.9 1158.5 1180.91C1159.89 1177.88 1160.71 1174.6 1160.94 1171.28C1161.9 1156.93 1151.49 1144.09 1137.22 1142.16C1135.68 1141.95 1134.12 1141.89 1132.56 1141.94ZM1134.09 1152.03C1136.03 1152.08 1137.97 1152.47 1139.78 1153.16C1149.62 1156.88 1153.99 1168.53 1149 1177.81C1146.75 1181.99 1142.82 1185.13 1138.25 1186.41C1137.12 1186.72 1135.95 1186.92 1134.78 1187C1134.77 1187 1134.7 1187 1134.69 1187C1134.35 1186.92 1134.02 1186.79 1133.66 1186.78C1131.22 1186.63 1132.01 1186.73 1131.22 1186.62C1130.27 1186.5 1129.35 1186.31 1128.44 1186.03C1123.61 1184.55 1119.58 1180.9 1117.59 1176.25C1116.77 1174.31 1116.3 1172.23 1116.22 1170.12C1115.84 1160.08 1124.05 1151.77 1134.09 1152.03Z" fill="#5d8b32" stroke="none"/>
</g>
</g>
</g>
<g opacity="1" vectornator:layerName="Polygon 2">
<path d="M1251.79 1174.05C1257.75 1171.16 1264.71 1171.16 1270.67 1174.05L1329.02 1202.31C1336.49 1205.93 1341.23 1213.5 1341.23 1221.79L1341.23 1272.16C1341.23 1280.46 1336.49 1288.02 1329.02 1291.64L1270.67 1319.91C1264.71 1322.79 1257.75 1322.79 1251.79 1319.91L1193.44 1291.64C1185.97 1288.02 1181.23 1280.46 1181.23 1272.16L1181.23 1221.79C1181.23 1213.5 1185.97 1205.93 1193.44 1202.31L1251.79 1174.05Z" fill="#000000" fill-opacity="0" fill-rule="nonzero" stroke="none"/>
<path d="M1264.19 1167.12C1261.32 1166.8 1261.64 1167.31 1252.66 1169C1251.62 1168.82 1250.55 1168.88 1249.53 1169.38C1243.15 1172.47 1245.28 1171.44 1243.16 1172.47C1239.51 1174.24 1235.87 1175.98 1232.22 1177.75C1220.97 1183.2 1209.71 1188.68 1198.47 1194.12C1196.65 1195.01 1194.82 1195.87 1193 1196.75C1191.24 1197.6 1189.5 1198.47 1187.88 1199.56C1183.4 1202.58 1179.89 1206.95 1177.91 1211.97C1176.99 1214.3 1176.43 1216.76 1176.19 1219.25C1175.96 1221.66 1176.06 1224.08 1176.06 1226.5C1176.06 1229.12 1176.06 1231.75 1176.06 1234.37C1176.06 1243.82 1176.06 1253.28 1176.06 1262.72C1176.06 1265.34 1176.06 1267.97 1176.06 1270.59C1176.06 1272.4 1176.09 1274.18 1176.34 1275.97C1177.11 1281.31 1179.5 1286.35 1183.16 1290.31C1187.59 1295.13 1193.64 1297.46 1199.41 1300.25C1208.53 1304.66 1217.66 1309.06 1226.78 1313.47C1232.25 1316.11 1237.71 1318.76 1243.19 1321.41C1246.21 1322.87 1249.23 1324.55 1252.41 1325.66C1257.45 1327.42 1262.96 1327.6 1268.12 1326.22C1271.08 1325.43 1273.79 1324.02 1276.53 1322.69C1280.18 1320.92 1283.82 1319.14 1287.47 1317.37C1299.01 1311.77 1310.55 1306.17 1322.09 1300.56C1324.52 1299.38 1326.94 1298.21 1329.37 1297.03C1331.12 1296.18 1332.85 1295.34 1334.47 1294.25C1338.23 1291.71 1341.34 1288.21 1343.38 1284.16C1344.67 1281.58 1345.53 1278.8 1345.94 1275.94C1346.26 1273.64 1346.22 1271.32 1346.22 1269C1346.22 1266.38 1346.19 1263.78 1346.19 1261.16C1346.18 1250.66 1346.19 1240.15 1346.19 1229.66C1346.19 1225.8 1346.45 1221.86 1345.91 1218.03C1345.32 1213.96 1343.78 1210.04 1341.44 1206.66C1339.32 1203.6 1336.58 1200.99 1333.41 1199.06C1331.25 1197.75 1328.9 1196.75 1326.62 1195.66C1322.98 1193.89 1319.3 1192.14 1315.66 1190.37C1305.02 1185.22 1294.39 1180.06 1283.75 1174.91C1281.01 1173.58 1278.3 1172.26 1275.56 1170.94C1271.83 1169.13 1268.37 1167.59 1264.19 1167.12ZM1262.5 1176.84C1263.95 1176.95 1265.37 1177.27 1266.75 1177.75C1267.99 1178.18 1269.16 1178.8 1270.34 1179.37C1277.94 1183.06 1285.53 1186.73 1293.12 1190.41C1302.24 1194.82 1311.38 1199.24 1320.5 1203.66C1322.02 1204.39 1323.51 1205.14 1325.03 1205.87C1326.35 1206.52 1327.72 1207.11 1328.94 1207.94C1331.51 1209.67 1333.54 1212.14 1334.81 1214.97C1336.3 1218.29 1336.28 1221.36 1336.28 1224.94C1336.28 1226.51 1336.28 1228.08 1336.28 1229.66C1336.28 1237.53 1336.29 1245.41 1336.28 1253.28C1336.28 1258 1336.25 1262.72 1336.25 1267.44C1336.25 1269.79 1336.43 1272.2 1336.09 1274.53C1335.54 1278.37 1333.63 1281.94 1330.75 1284.53C1328.55 1286.51 1325.82 1287.63 1323.19 1288.91C1320.15 1290.38 1317.1 1291.84 1314.06 1293.31C1303.12 1298.6 1292.17 1303.9 1281.22 1309.19C1277.87 1310.8 1274.53 1312.42 1271.19 1314.03C1267.86 1315.64 1265 1317 1261.22 1317C1256.23 1316.99 1251.98 1314.33 1247.62 1312.22C1241.55 1309.27 1235.48 1306.33 1229.41 1303.38C1220.29 1298.95 1211.18 1294.55 1202.06 1290.12C1200.54 1289.39 1199.02 1288.64 1197.5 1287.91C1196.19 1287.27 1194.87 1286.66 1193.66 1285.84C1190.9 1283.98 1188.75 1281.28 1187.53 1278.19C1186.35 1275.19 1186.37 1272.17 1186.38 1269C1186.38 1267.43 1186.41 1265.86 1186.41 1264.28C1186.41 1256.94 1186.4 1249.59 1186.41 1242.25C1186.41 1237 1186.41 1231.75 1186.41 1226.5C1186.41 1223.1 1186.17 1219.73 1187.28 1216.47C1188.35 1213.34 1190.38 1210.56 1193.03 1208.59C1194.69 1207.36 1196.59 1206.55 1198.44 1205.66C1200.87 1204.48 1203.29 1203.3 1205.72 1202.12C1216.66 1196.83 1227.62 1191.52 1238.56 1186.22C1241.91 1184.6 1245.25 1182.99 1248.59 1181.38C1249.81 1180.79 1251.03 1180.18 1252.25 1179.59C1252.55 1179.45 1252.24 1179.6 1254.06 1178.72C1254.32 1178.59 1254.49 1178.38 1254.72 1178.22C1256.59 1177.55 1256.98 1177.31 1258.12 1177.09C1259.56 1176.82 1261.05 1176.73 1262.5 1176.84Z" fill="#5d8b32" stroke="none"/>
</g>
</g>
<g filter="url(#Filter_2)" vectornator:layerName="Source Code" vectornator:shadowAngle="1.5708" vectornator:shadowColor="#000000" vectornator:shadowOffset="10" vectornator:shadowOpacity="0.333" vectornator:shadowRadius="10">
<g opacity="1" vectornator:layerName="path">
<path d="M1271.03 1215.25C1269.16 1215.31 1267.41 1216.46 1266.69 1218.31C1259.69 1236.26 1252.51 1254.12 1245.5 1272.06C1244.49 1274.67 1245.8 1277.61 1248.41 1278.62C1251.02 1279.64 1253.95 1278.36 1254.97 1275.75C1261.91 1257.78 1268.7 1239.75 1275.66 1221.78C1276.62 1219.31 1275.38 1216.52 1272.91 1215.56C1272.29 1215.32 1271.65 1215.23 1271.03 1215.25ZM1283.78 1222.06C1283.17 1222.18 1282.58 1222.41 1282.03 1222.78C1279.83 1224.26 1279.21 1227.23 1280.69 1229.44C1282.37 1231.96 1284.07 1234.5 1285.75 1237.03C1287.93 1240.32 1290.06 1243.65 1292.25 1246.94C1291.73 1247.73 1291.17 1248.5 1290.66 1249.25C1288.95 1251.76 1287.26 1254.26 1285.56 1256.78C1283.87 1259.3 1282.16 1261.82 1280.47 1264.34C1278.91 1266.67 1279.55 1269.85 1281.88 1271.41C1284.2 1272.96 1287.35 1272.33 1288.91 1270C1291.15 1266.63 1293.39 1263.25 1295.62 1259.88C1296.46 1258.61 1297.32 1257.33 1298.16 1256.06C1298.71 1255.22 1299.26 1254.38 1299.81 1253.53C1301.45 1251.03 1303.64 1248.55 1302.69 1245.31C1302.31 1244.01 1301.35 1242.83 1300.59 1241.72C1300.31 1241.3 1300.04 1240.89 1299.75 1240.47C1299.18 1239.63 1298.6 1238.81 1298.03 1237.97C1296.89 1236.3 1295.76 1234.62 1294.62 1232.94C1292.64 1230 1290.66 1227.04 1288.69 1224.09C1287.58 1222.44 1285.62 1221.71 1283.78 1222.06ZM1235.78 1222.06C1234.58 1222.3 1233.46 1222.99 1232.72 1224.09C1230.74 1227.04 1228.77 1230 1226.78 1232.94C1225.65 1234.62 1224.52 1236.3 1223.38 1237.97C1222.8 1238.8 1222.23 1239.63 1221.66 1240.47C1220.4 1242.31 1218.57 1244.38 1218.47 1246.72C1218.43 1247.52 1218.57 1248.32 1218.84 1249.06C1219.25 1250.16 1220.11 1251.28 1220.75 1252.25C1221.03 1252.67 1221.32 1253.11 1221.59 1253.53C1221.87 1253.95 1222.16 1254.39 1222.44 1254.81C1222.72 1255.24 1223 1255.64 1223.28 1256.06C1224.4 1257.75 1225.5 1259.47 1226.62 1261.16C1228.59 1264.11 1230.54 1267.05 1232.5 1270C1234.06 1272.33 1237.2 1272.96 1239.53 1271.41C1241.86 1269.85 1242.5 1266.67 1240.94 1264.34C1239.24 1261.82 1237.54 1259.3 1235.84 1256.78C1233.87 1253.84 1231.87 1250.93 1229.88 1248C1229.64 1247.65 1229.39 1247.3 1229.16 1246.94C1231.34 1243.65 1233.48 1240.32 1235.66 1237.03C1237.33 1234.5 1239.03 1231.96 1240.72 1229.44C1242.19 1227.23 1241.61 1224.26 1239.41 1222.78C1238.3 1222.04 1236.99 1221.82 1235.78 1222.06Z" fill="#5d8b32" stroke="none"/>
</g>
</g>
</g>
</g>
</svg>
